<svg width="31" height="39" viewBox="0 0 31 39" fill="none" xmlns="http://www.w3.org/2000/svg">
<path d="M11.3684 37.3307C12.0843 37.3307 12.6646 36.5561 12.6646 35.6006C12.6646 34.6452 12.0843 33.8706 11.3684 33.8706C10.6526 33.8706 10.0723 34.6452 10.0723 35.6006C10.0723 36.5561 10.6526 37.3307 11.3684 37.3307Z" fill="#3F3D56" stroke="black" stroke-width="2" stroke-linecap="round" stroke-linejoin="round"/>
<path d="M25.6263 37.3307C26.3421 37.3307 26.9224 36.5561 26.9224 35.6006C26.9224 34.6452 26.3421 33.8706 25.6263 33.8706C24.9104 33.8706 24.3301 34.6452 24.3301 35.6006C24.3301 36.5561 24.9104 37.3307 25.6263 37.3307Z" fill="#3F3D56" stroke="black" stroke-width="2" stroke-linecap="round" stroke-linejoin="round"/>
<path d="M1 1H6.18466L9.65838 24.1653C9.77691 24.9618 10.1016 25.6773 10.5755 26.1865C11.0494 26.6957 11.6424 26.9662 12.2507 26.9506H24.8494C25.4577 26.9662 26.0507 26.6957 26.5247 26.1865C26.9986 25.6773 27.3232 24.9618 27.4418 24.1653L29.5156 9.65022H7.48082" fill="#3F3D56"/>
<path d="M1 1H6.18466L9.65838 24.1653C9.77691 24.9618 10.1015 25.6773 10.5755 26.1865C11.0494 26.6957 11.6424 26.9662 12.2507 26.9506H24.8494C25.4577 26.9662 26.0507 26.6957 26.5247 26.1865C26.9986 25.6773 27.3232 24.9618 27.4418 24.1653L29.5156 9.65022H7.48082" stroke="black" stroke-width="2" stroke-linecap="round" stroke-linejoin="round"/>
</svg>
