<svg width="48" height="48" viewBox="0 0 48 48" fill="none" xmlns="http://www.w3.org/2000/svg">
<path d="M23.9175 45.9899C14.4975 45.9899 9.91876 41.1674 9.91876 31.2486V22.8936C9.91876 22.5936 9.94126 22.4099 9.96376 22.2974C10.2375 22.4549 10.7438 22.8899 11.13 23.2274C12.4125 24.3374 14.1638 25.8524 16.185 25.8524H27.3188C27.4988 25.8524 27.7688 25.8486 28.1025 25.8411C28.6463 25.8299 29.3663 25.8149 30.1688 25.8149C36.4163 25.8149 36.8625 26.7486 36.8925 26.8536C36.9975 27.2174 37.1363 27.5886 37.2825 27.9786C37.6988 29.0849 38.1675 30.3336 38.1675 32.1524C38.1675 37.3199 36.3188 45.9899 23.9175 45.9899V45.9899Z" fill="url(#paint0_radial_11_13312)"/>
<path d="M10.4813 23.4112C10.5788 23.4937 10.6725 23.5762 10.7625 23.6512C12.1088 24.8175 13.9575 26.415 16.185 26.415H27.3188C27.5025 26.415 27.7725 26.4112 28.1138 26.4037C28.6463 26.3925 29.3738 26.3775 30.1725 26.3775C35.0513 26.3775 36.1688 26.9512 36.3863 27.1125C36.4913 27.4612 36.6225 27.81 36.7613 28.1775C37.1588 29.2387 37.6125 30.4387 37.6125 32.1525C37.6125 34.7775 37.11 38.4975 34.725 41.3175C32.4188 44.0437 28.785 45.4275 23.925 45.4275C19.02 45.4275 15.435 44.0587 13.2675 41.355C11.4225 39.0525 10.4888 35.655 10.4888 31.2525V23.4112H10.4813ZM9.82876 21.6787C9.52501 21.6787 9.35626 22.0162 9.35626 22.8937V31.2487C9.35626 39.6637 12.5738 46.5525 23.9175 46.5525C35.2613 46.5525 38.73 39.3337 38.73 32.1525C38.73 29.5612 37.8038 28.0087 37.4325 26.7C37.0763 25.4475 33.09 25.2525 30.1688 25.2525C28.875 25.2525 27.7875 25.29 27.3188 25.29H16.185C13.3088 25.2937 10.83 21.6787 9.82876 21.6787V21.6787Z" fill="#EDA600"/>
<path d="M26.7637 30.0301C26.4337 30.0301 26.1037 29.9776 25.785 29.8726C24.15 29.3326 23.2537 27.5626 23.7937 25.9275L30.96 4.1588C31.0876 3.76854 31.2909 3.40732 31.5585 3.09586C31.826 2.7844 32.1524 2.52883 32.5189 2.34382C32.8854 2.15881 33.2849 2.048 33.6944 2.01775C34.1038 1.9875 34.5152 2.03841 34.905 2.16755C36.54 2.70755 37.4362 4.47755 36.8962 6.11255L29.7337 27.8813C29.5282 28.5067 29.1303 29.0511 28.597 29.437C28.0636 29.8229 27.422 30.0304 26.7637 30.0301V30.0301Z" fill="url(#paint1_radial_11_13312)"/>
<path d="M33.93 2.57227C34.2 2.57227 34.47 2.61727 34.7325 2.70352C35.3813 2.91727 35.91 3.37102 36.2175 3.98227C36.525 4.59352 36.5775 5.28727 36.3638 5.93602L29.1975 27.7048C29.0295 28.2177 28.7037 28.6643 28.2666 28.9809C27.8295 29.2974 27.3035 29.4677 26.7638 29.4673C26.4938 29.4673 26.2238 29.4223 25.9613 29.336C25.3125 29.1223 24.7838 28.6685 24.4763 28.0573C24.1688 27.446 24.1163 26.7523 24.33 26.1035L31.4963 4.33477C31.845 3.28102 32.82 2.57227 33.93 2.57227V2.57227ZM33.93 1.44727C32.3813 1.44727 30.9375 2.42977 30.4275 3.98227L23.2613 25.751C22.6238 27.686 23.6775 29.771 25.6088 30.4048C25.9913 30.5323 26.3813 30.5923 26.7638 30.5923C28.3125 30.5923 29.7563 29.6098 30.2663 28.0573L37.4325 6.28852C38.07 4.35352 37.0163 2.26852 35.085 1.63477C34.7025 1.50727 34.3125 1.44727 33.93 1.44727V1.44727Z" fill="#EDA600"/>
<path d="M20.5237 29.6664C18.7537 29.6664 17.3137 28.2264 17.3137 26.4564V19.5376C17.3137 17.7676 18.7537 16.3276 20.5237 16.3276C22.2937 16.3276 23.7337 17.7676 23.7337 19.5376V26.4564C23.7337 28.2264 22.2937 29.6664 20.5237 29.6664Z" fill="url(#paint2_radial_11_13312)"/>
<path d="M20.5237 16.8936C21.9825 16.8936 23.1712 18.0823 23.1712 19.5411V26.4598C23.1712 27.9186 21.9825 29.1073 20.5237 29.1073C19.065 29.1073 17.8762 27.9186 17.8762 26.4598V19.5373C17.8762 18.0786 19.065 16.8936 20.5237 16.8936V16.8936ZM20.5237 15.7686C18.4425 15.7686 16.7512 17.4561 16.7512 19.5411V26.4598C16.7512 28.5411 18.4387 30.2323 20.5237 30.2323C22.605 30.2323 24.2962 28.5448 24.2962 26.4598V19.5373C24.2962 17.4561 22.6087 15.7686 20.5237 15.7686V15.7686Z" fill="#EDA600"/>
<path d="M13.0163 30.105C11.2613 30.105 9.83252 28.6763 9.83252 26.9213V21.6413C9.83252 19.8863 11.2613 18.4575 13.0163 18.4575C14.7713 18.4575 16.2 19.8863 16.2 21.6413V26.9213C16.2 28.6763 14.7713 30.105 13.0163 30.105Z" fill="url(#paint3_radial_11_13312)"/>
<path d="M13.0163 19.02C14.46 19.02 15.6375 20.1975 15.6375 21.6413V26.9213C15.6375 28.365 14.46 29.5425 13.0163 29.5425C11.5725 29.5425 10.395 28.365 10.395 26.9213V21.6413C10.395 20.1975 11.5688 19.02 13.0163 19.02ZM13.0163 17.895C10.9463 17.895 9.27002 19.5713 9.27002 21.6413V26.9213C9.27002 28.9913 10.9463 30.6675 13.0163 30.6675C15.0863 30.6675 16.7625 28.9913 16.7625 26.9213V21.6413C16.7625 19.5713 15.0825 17.895 13.0163 17.895Z" fill="#EDA600"/>
<path d="M34.1325 31.5185C32.7788 31.5185 31.5863 30.656 31.1663 29.3698L23.5238 6.1648C23.2613 5.37355 23.325 4.52604 23.7038 3.77979C24.0788 3.03354 24.7238 2.48229 25.515 2.21979C25.9048 2.09066 26.3162 2.03975 26.7256 2.07C27.1351 2.10025 27.5346 2.21106 27.9011 2.39607C28.2676 2.58107 28.594 2.83664 28.8615 3.1481C29.1291 3.45956 29.3324 3.82079 29.46 4.21104L37.0988 27.416C37.3613 28.2073 37.2975 29.0548 36.9188 29.801C36.5438 30.5473 35.8988 31.0985 35.1075 31.361C34.7925 31.466 34.4625 31.5185 34.1325 31.5185Z" fill="url(#paint4_radial_11_13312)"/>
<path d="M26.4937 2.625C27.6037 2.625 28.5787 3.33375 28.9275 4.3875L36.5662 27.5925C36.7784 28.238 36.7258 28.9413 36.42 29.548C36.1142 30.1548 35.5801 30.6154 34.935 30.8288C34.6725 30.915 34.4025 30.96 34.1325 30.96C33.0225 30.96 32.0475 30.2513 31.6987 29.1975L24.06 5.9925C23.8478 5.34702 23.9004 4.64371 24.2062 4.03697C24.5121 3.43023 25.0462 2.96962 25.6912 2.75625C25.9537 2.67 26.2237 2.625 26.4937 2.625V2.625ZM26.4937 1.5C26.1112 1.5 25.7212 1.56 25.3387 1.6875C23.4037 2.325 22.3537 4.41 22.9912 6.34125L30.63 29.5463C31.14 31.0988 32.5837 32.0813 34.1325 32.0813C34.515 32.0813 34.905 32.0213 35.2875 31.8938C37.2225 31.2563 38.2725 29.1713 37.635 27.24L29.9962 4.035C29.7525 3.29825 29.283 2.65692 28.6543 2.20192C28.0257 1.74693 27.2698 1.50135 26.4937 1.5V1.5Z" fill="#EDA600"/>
<path d="M32.9587 33.7127C31.5675 33.304 30.0375 33.1577 28.695 33.8102C27.3075 34.4852 26.6062 35.8427 26.0475 37.2077C25.7737 37.879 26.8612 38.1677 27.1312 37.5077C27.5925 36.3827 28.1812 35.239 29.3662 34.7515C30.435 34.309 31.5825 34.4815 32.6587 34.8002C33.3562 35.0027 33.6525 33.919 32.9587 33.7127V33.7127Z" fill="#EDA600"/>
<path d="M35.0175 38.7899C33.9037 38.7712 32.415 37.2824 31.395 35.1674C30.525 33.3599 28.8862 32.6549 25.5412 32.6549C24.6037 32.6549 23.5462 32.7112 22.2975 32.8237C22.2075 32.8312 22.1137 32.8349 22.0237 32.8349C20.5912 32.8349 19.0687 31.8449 18.5625 30.5812C18.2475 29.7974 18.2212 28.5749 18.78 27.7499C19.1625 27.1874 19.7625 26.8987 20.5612 26.8987C21.8137 26.8987 28.8412 26.1224 29.7975 26.0137C32.3662 26.6249 38.7637 28.7287 39.03 31.4887C39.315 34.4849 38.9362 36.5812 37.9012 37.7212C37.2525 38.4374 36.345 38.7824 35.13 38.7824L35.0175 38.7899Z" fill="url(#paint5_radial_11_13312)"/>
<path d="M29.76 26.5912C30.3412 26.7374 32.2312 27.2399 34.1325 28.0499C36.7837 29.1824 38.3662 30.4574 38.4712 31.5487C38.7412 34.3799 38.4112 36.3299 37.485 37.3499C36.9487 37.9424 36.1762 38.2274 35.13 38.2274H35.0287C34.2675 38.2124 32.8912 36.9749 31.905 34.9237C30.9375 32.9137 29.0962 32.0962 25.545 32.0962C24.5925 32.0962 23.5125 32.1524 22.2487 32.2687C22.1775 32.2762 22.1025 32.2799 22.0237 32.2799C20.805 32.2799 19.5112 31.4437 19.0837 30.3787C18.8325 29.7487 18.8025 28.7287 19.245 28.0724C19.5187 27.6674 19.95 27.4687 20.5612 27.4687C21.8137 27.4649 28.335 26.7487 29.76 26.5912V26.5912ZM29.8312 25.4512C29.8312 25.4512 21.8625 26.3437 20.5612 26.3437C17.8387 26.3437 17.3887 29.1787 18.0412 30.7987C18.6525 32.3174 20.3887 33.4049 22.0237 33.4049C22.1325 33.4049 22.2412 33.4012 22.35 33.3899C23.5912 33.2774 24.645 33.2212 25.5412 33.2212C29.1225 33.2212 30.2437 34.0762 30.885 35.4149C31.995 37.7249 33.645 39.3337 35.0025 39.3562H35.1225C39.6412 39.3562 39.9075 34.8187 39.585 31.4437C39.225 27.6262 29.8312 25.4512 29.8312 25.4512V25.4512Z" fill="#EDA600"/>
<defs>
<radialGradient id="paint0_radial_11_13312" cx="0" cy="0" r="1" gradientUnits="userSpaceOnUse" gradientTransform="translate(23.4723 31.1506) rotate(13.5443) scale(13.163 17.7935)">
<stop stop-color="#FFB300"/>
<stop offset="0.689" stop-color="#FFCA28"/>
<stop offset="1" stop-color="#FFB300"/>
</radialGradient>
<radialGradient id="paint1_radial_11_13312" cx="0" cy="0" r="1" gradientUnits="userSpaceOnUse" gradientTransform="translate(33.6665 5.78227) rotate(-161.778) scale(7.23134 17.1584)">
<stop stop-color="#FFCA28"/>
<stop offset="0.5" stop-color="#FFB300"/>
</radialGradient>
<radialGradient id="paint2_radial_11_13312" cx="0" cy="0" r="1" gradientUnits="userSpaceOnUse" gradientTransform="translate(20.4278 18.748) rotate(89.4107) scale(8.49009 5.37331)">
<stop offset="0.599" stop-color="#FFCA28"/>
<stop offset="1" stop-color="#FFB300"/>
</radialGradient>
<radialGradient id="paint3_radial_11_13312" cx="0" cy="0" r="1" gradientUnits="userSpaceOnUse" gradientTransform="translate(12.9427 20.9827) rotate(90.1026) scale(7.1713 4.64834)">
<stop offset="0.599" stop-color="#FFCA28"/>
<stop offset="1" stop-color="#FFB300"/>
</radialGradient>
<radialGradient id="paint4_radial_11_13312" cx="0" cy="0" r="1" gradientUnits="userSpaceOnUse" gradientTransform="translate(25.0698 0.679443) rotate(71.8823) scale(70.5445 4.6995)">
<stop stop-color="#FFCA28"/>
<stop offset="0.112" stop-color="#FFC41E"/>
<stop offset="0.369" stop-color="#FFBB0D"/>
<stop offset="0.65" stop-color="#FFB503"/>
<stop offset="1" stop-color="#FFB300"/>
</radialGradient>
<radialGradient id="paint5_radial_11_13312" cx="0" cy="0" r="1" gradientUnits="userSpaceOnUse" gradientTransform="translate(26.1229 24.7128) scale(17.8624)">
<stop offset="0.356" stop-color="#FFCA28"/>
<stop offset="0.505" stop-color="#FFB300"/>
</radialGradient>
</defs>
</svg>
