<svg width="94" height="94" viewBox="0 0 94 94" fill="none" xmlns="http://www.w3.org/2000/svg">
<path d="M17.1638 0C7.65583 0 0 7.65581 0 17.1638V76.8361C0 86.3441 7.65583 93.9999 17.1638 93.9999H49.5058V57.2518H39.7885V44.0213H49.5058V32.7179C49.5058 23.8372 55.2472 15.6833 68.4732 15.6833C73.8282 15.6833 77.788 16.1974 77.788 16.1974L77.4766 28.5525C77.4766 28.5525 73.4381 28.5144 69.0312 28.5144C64.2618 28.5144 63.497 30.7119 63.497 34.36V44.0214H77.8555L77.2298 57.2519H63.497V94H76.8362C86.3442 94 94 86.3442 94 76.8362V17.1639C94 7.65591 86.3442 9.39998e-05 76.8362 9.39998e-05H17.1637L17.1638 0Z" fill="#464346"/>
</svg>
