<svg width="95" height="94" viewBox="0 0 95 94" fill="none" xmlns="http://www.w3.org/2000/svg">
<path d="M47.4874 31.3267C38.8572 31.3267 31.8143 38.3697 31.8143 47C31.8143 55.6303 38.8572 62.6733 47.4874 62.6733C56.1175 62.6733 63.1604 55.6303 63.1604 47C63.1604 38.3697 56.1175 31.3267 47.4874 31.3267ZM94.4948 47C94.4948 40.5096 94.5535 34.078 94.1891 27.5994C93.8246 20.0743 92.1079 13.3958 86.6053 7.89308C81.091 2.3786 74.4243 0.6737 66.8994 0.309204C60.4091 -0.0552926 53.9776 0.00349733 47.4991 0.00349733C41.0089 0.00349733 34.5774 -0.0552926 28.0989 0.309204C20.5739 0.6737 13.8955 2.39036 8.39293 7.89308C2.87856 13.4076 1.17369 20.0743 0.809198 27.5994C0.444708 34.0898 0.503497 40.5214 0.503497 47C0.503497 53.4786 0.444708 59.922 0.809198 66.4006C1.17369 73.9257 2.89032 80.6042 8.39293 86.1069C13.9073 91.6214 20.5739 93.3263 28.0989 93.6908C34.5891 94.0553 41.0206 93.9965 47.4991 93.9965C53.9894 93.9965 60.4209 94.0553 66.8994 93.6908C74.4243 93.3263 81.1027 91.6096 86.6053 86.1069C92.1197 80.5924 93.8246 73.9257 94.1891 66.4006C94.5653 59.922 94.4948 53.4904 94.4948 47ZM47.4874 71.1155C34.1423 71.1155 23.3723 60.3453 23.3723 47C23.3723 33.6547 34.1423 22.8845 47.4874 22.8845C60.8324 22.8845 71.6025 33.6547 71.6025 47C71.6025 60.3453 60.8324 71.1155 47.4874 71.1155ZM72.5901 27.5288C69.4743 27.5288 66.9582 25.0126 66.9582 21.8968C66.9582 18.7809 69.4743 16.2647 72.5901 16.2647C75.7059 16.2647 78.2221 18.7809 78.2221 21.8968C78.223 22.6367 78.0779 23.3694 77.7952 24.0532C77.5125 24.7369 77.0977 25.3582 76.5746 25.8813C76.0514 26.4045 75.4302 26.8193 74.7465 27.102C74.0628 27.3847 73.33 27.5298 72.5901 27.5288Z" fill="#464346"/>
</svg>
