<svg width="30" height="31" viewBox="0 0 30 31" fill="none" xmlns="http://www.w3.org/2000/svg">
<path fill-rule="evenodd" clip-rule="evenodd" d="M21.6667 12.8334C21.6667 14.0591 21.4253 15.2727 20.9563 16.4051C20.4872 17.5375 19.7998 18.5664 18.9331 19.4331C18.0664 20.2998 17.0375 20.9872 15.9051 21.4563C14.7727 21.9253 13.5591 22.1667 12.3334 22.1667C11.1077 22.1667 9.89407 21.9253 8.7617 21.4563C7.62933 20.9872 6.60043 20.2998 5.73375 19.4331C4.86707 18.5664 4.17958 17.5375 3.71054 16.4051C3.24149 15.2727 3.00008 14.0591 3.00008 12.8334C3.00008 10.3581 3.98341 7.98409 5.73375 6.23375C7.48409 4.48341 9.85806 3.50008 12.3334 3.50008C14.8088 3.50008 17.1827 4.48341 18.9331 6.23375C20.6834 7.98409 21.6667 10.3581 21.6667 12.8334ZM19.8241 22.2094C17.4279 24.1238 14.3896 25.048 11.3332 24.7922C8.27689 24.5364 5.43449 23.1201 3.38978 20.8341C1.34508 18.5481 0.253289 15.5659 0.338636 12.5001C0.423984 9.43422 1.67999 6.51742 3.84871 4.34871C6.01742 2.17999 8.93422 0.923984 12.0001 0.838636C15.0659 0.753289 18.0481 1.84508 20.3341 3.88978C22.6201 5.93449 24.0364 8.77689 24.2922 11.8332C24.548 14.8896 23.6238 17.9279 21.7094 20.3241L29.2774 27.8894C29.4014 28.0134 29.4997 28.1605 29.5668 28.3225C29.6339 28.4845 29.6684 28.6581 29.6684 28.8334C29.6684 29.0087 29.6339 29.1823 29.5668 29.3443C29.4997 29.5063 29.4014 29.6534 29.2774 29.7774C29.1534 29.9014 29.0063 29.9997 28.8443 30.0668C28.6823 30.1339 28.5087 30.1684 28.3334 30.1684C28.1581 30.1684 27.9845 30.1339 27.8225 30.0668C27.6605 29.9997 27.5134 29.9014 27.3894 29.7774L19.8267 22.2094H19.8241Z" fill="#5D5D5D"/>
</svg>
