<svg width="1289" height="981" viewBox="0 0 1289 981" fill="none" xmlns="http://www.w3.org/2000/svg">
<g clip-path="url(#clip0_53_3172)">
<path d="M515.793 203.437H511.091V74.5793C511.091 64.7854 509.162 55.0874 505.416 46.0391C501.669 36.9907 496.177 28.7691 489.254 21.8438C482.33 14.9185 474.111 9.425 465.066 5.67703C456.02 1.92907 446.325 8.29815e-06 436.534 1.35682e-10H163.613C143.839 -3.77068e-05 124.875 7.85735 110.893 21.8436C96.9108 35.8299 89.0557 54.7994 89.0557 74.5791V781.502C89.0557 791.296 90.9841 800.994 94.731 810.042C98.4778 819.09 103.97 827.312 110.893 834.237C117.816 841.162 126.035 846.656 135.081 850.404C144.127 854.152 153.822 856.081 163.613 856.081H436.534C456.307 856.081 475.271 848.224 489.253 834.237C503.236 820.251 511.091 801.282 511.091 781.502V295.16H515.793V203.437Z" fill="#3F3D56"/>
<path d="M439.542 19.4033H403.916C405.555 23.4211 406.18 27.7803 405.737 32.0968C405.295 36.4133 403.798 40.5548 401.378 44.1562C398.958 47.7576 395.691 50.7086 391.862 52.7491C388.034 54.7896 383.763 55.857 379.425 55.8573H223.072C218.734 55.857 214.463 54.7896 210.635 52.7491C206.806 50.7086 203.538 47.7577 201.119 44.1562C198.699 40.5548 197.202 36.4134 196.759 32.0969C196.317 27.7803 196.942 23.4211 198.58 19.4033H165.306C157.995 19.4033 150.754 20.8439 143.999 23.6428C137.244 26.4418 131.106 30.5442 125.936 35.716C120.766 40.8877 116.664 47.0275 113.866 53.7847C111.068 60.5419 109.628 67.7843 109.628 75.0982V780.984C109.628 788.298 111.068 795.54 113.866 802.297C116.664 809.054 120.766 815.194 125.936 820.366C131.106 825.538 137.244 829.64 143.999 832.439C150.754 835.238 157.994 836.679 165.306 836.679H439.542C446.853 836.679 454.094 835.238 460.849 832.439C467.604 829.64 473.742 825.538 478.912 820.366C484.082 815.194 488.184 809.054 490.982 802.297C493.78 795.54 495.22 788.298 495.22 780.984V75.0982C495.22 67.7843 493.78 60.5419 490.982 53.7847C488.184 47.0275 484.082 40.8877 478.912 35.716C473.742 30.5442 467.604 26.4418 460.849 23.6428C454.094 20.8439 446.853 19.4033 439.542 19.4033Z" fill="white"/>
<path d="M603.27 856.203H1.57924C1.1604 856.203 0.758712 856.036 0.462548 855.74C0.166383 855.444 0 855.042 0 854.623C0 854.204 0.166383 853.802 0.462548 853.506C0.758712 853.21 1.1604 853.043 1.57924 853.043H603.27C603.689 853.043 604.09 853.21 604.386 853.506C604.683 853.802 604.849 854.204 604.849 854.623C604.849 855.042 604.683 855.444 604.386 855.74C604.09 856.036 603.689 856.203 603.27 856.203Z" fill="#CBCBCB"/>
<path d="M302.424 546.074C376.077 546.074 435.785 486.348 435.785 412.673C435.785 338.998 376.077 279.272 302.424 279.272C228.771 279.272 169.063 338.998 169.063 412.673C169.063 486.348 228.771 546.074 302.424 546.074Z" fill="#3F3D56"/>
<path d="M289.209 463.562C286.209 463.567 283.288 462.596 280.888 460.796L280.739 460.684L249.397 436.702C247.946 435.588 246.728 434.2 245.812 432.616C244.897 431.032 244.303 429.283 244.063 427.469C243.824 425.655 243.944 423.812 244.416 422.045C244.889 420.277 245.705 418.62 246.818 417.168C247.931 415.716 249.319 414.498 250.902 413.582C252.486 412.667 254.234 412.072 256.047 411.833C257.861 411.593 259.703 411.713 261.47 412.186C263.237 412.659 264.894 413.475 266.345 414.588L286.646 430.16L334.617 367.558C335.73 366.106 337.117 364.888 338.7 363.973C340.283 363.058 342.03 362.464 343.843 362.224C345.656 361.985 347.497 362.105 349.264 362.577C351.03 363.05 352.686 363.866 354.137 364.979L354.141 364.982L353.843 365.395L354.149 364.982C357.076 367.232 358.991 370.552 359.474 374.214C359.957 377.875 358.968 381.578 356.724 384.511L300.299 458.112C298.994 459.808 297.315 461.18 295.394 462.123C293.473 463.065 291.361 463.552 289.221 463.546L289.209 463.562Z" fill="white"/>
<path d="M1096.38 869.315C1098 866.691 1099.91 864.256 1102.07 862.056C1102.96 861.131 1103.91 860.259 1104.88 859.411C1110.77 854.161 1117.96 850.577 1125.7 849.027C1133.44 847.478 1141.45 848.018 1148.92 850.593C1156.38 853.168 1163.02 857.685 1168.16 863.679C1173.3 869.673 1176.75 876.928 1178.15 884.698C1184.67 860.604 1167.71 836.871 1150.67 818.642C1133.61 800.418 1114.12 780.427 1114.22 755.456C1114.26 741.561 1121.06 729.165 1131.32 719.975C1131.63 719.697 1131.95 719.419 1132.27 719.15C1144.67 708.518 1160.63 702.957 1176.95 703.577C1207.27 705.202 1233.74 725.585 1252.13 749.764C1281.72 788.668 1294.69 843.278 1273.97 887.564C1255.75 926.514 1216.88 949.643 1177.22 968.238C1171.68 970.835 1166.15 973.354 1160.63 975.794C1160.6 975.804 1160.56 975.83 1160.52 975.84C1160.26 975.956 1159.99 976.073 1159.74 976.193C1158.6 976.696 1157.46 977.198 1156.34 977.694L1156.86 978.036L1158.49 979.093C1157.92 978.75 1157.36 978.418 1156.8 978.075C1156.63 977.972 1156.45 977.874 1156.29 977.77C1136.8 966.077 1117.05 953.708 1103.59 935.453C1089.64 916.5 1084.02 889.352 1096.38 869.315Z" fill="#F1F1F1"/>
<path d="M1226.36 825.298C1230.67 835.115 1233.53 845.508 1234.84 856.15C1235.88 865.639 1235.49 875.23 1233.69 884.604C1229.82 903.868 1221.39 921.921 1209.09 937.244C1199.81 948.877 1189.1 959.291 1177.22 968.238C1171.68 970.835 1166.15 973.354 1160.64 975.794C1160.6 975.804 1160.56 975.83 1160.52 975.84C1160.26 975.956 1159.99 976.073 1159.74 976.193C1158.6 976.696 1157.46 977.198 1156.34 977.694L1156.86 978.036L1158.49 979.093C1157.92 978.75 1157.37 978.418 1156.8 978.075C1156.63 977.972 1156.45 977.874 1156.29 977.77C1160.57 962.769 1161.2 946.959 1158.12 931.664C1155.04 916.37 1148.34 902.036 1138.59 889.865C1128.78 877.847 1116.27 868.318 1102.07 862.056C1102.97 861.131 1103.91 860.259 1104.88 859.412C1110.34 861.922 1115.58 864.912 1120.52 868.345C1138.18 880.56 1151.45 898.14 1158.35 918.484C1164.51 936.941 1165.28 956.773 1160.57 975.652C1161.55 975.012 1162.53 974.356 1163.48 973.703C1181.63 961.46 1198.36 946.758 1210.96 928.727C1221.82 913.489 1228.78 895.812 1231.21 877.253C1233.62 856.979 1228.55 837.043 1219.5 818.953C1209.51 799.6 1196.92 781.705 1182.08 765.764C1167.17 749.384 1150.32 734.889 1131.9 722.604C1131.48 722.323 1131.19 721.894 1131.08 721.405C1130.97 720.916 1131.06 720.404 1131.32 719.975C1131.52 719.585 1131.86 719.289 1132.27 719.15C1132.49 719.097 1132.71 719.091 1132.92 719.134C1133.13 719.177 1133.33 719.268 1133.51 719.399C1135.78 720.918 1138.04 722.449 1140.26 724.027C1158.82 737.169 1175.67 752.566 1190.43 769.863C1204.69 786.537 1217.67 805.062 1226.36 825.298Z" fill="white"/>
<path d="M829.167 61.9415C844.809 61.9415 857.489 49.2575 857.489 33.6109C857.489 17.9643 844.809 5.28027 829.167 5.28027C813.525 5.28027 800.845 17.9643 800.845 33.6109C800.845 49.2575 813.525 61.9415 829.167 61.9415Z" fill="#F1F1F1"/>
<path d="M1181.34 441.072C1190.87 441.072 1198.61 433.338 1198.61 423.799C1198.61 414.26 1190.87 406.526 1181.34 406.526C1171.8 406.526 1164.07 414.26 1164.07 423.799C1164.07 433.338 1171.8 441.072 1181.34 441.072Z" fill="#F1F1F1"/>
<path d="M675.98 488.463C685.517 488.463 693.248 480.73 693.248 471.191C693.248 461.651 685.517 453.918 675.98 453.918C666.444 453.918 658.713 461.651 658.713 471.191C658.713 480.73 666.444 488.463 675.98 488.463Z" fill="#F1F1F1"/>
<path d="M685.731 981H1287.42C1287.84 981 1288.24 980.834 1288.54 980.538C1288.83 980.241 1289 979.839 1289 979.421C1289 979.002 1288.83 978.6 1288.54 978.304C1288.24 978.007 1287.84 977.841 1287.42 977.841H685.731C685.312 977.841 684.91 978.007 684.614 978.304C684.318 978.6 684.151 979.002 684.151 979.421C684.151 979.839 684.318 980.241 684.614 980.538C684.91 980.834 685.312 981 685.731 981Z" fill="#CBCBCB"/>
<path d="M1221.02 152.656C1221.81 147.045 1220.52 141.339 1217.38 136.619C1214.25 131.899 1209.49 128.494 1204.01 127.048C1198.54 125.602 1192.72 126.216 1187.66 128.773C1182.61 131.331 1178.67 135.654 1176.59 140.924L1127.76 196.916L1142.09 236.941L1191.19 171.517C1194.39 172.543 1197.78 172.855 1201.12 172.429C1204.46 172.003 1207.66 170.851 1210.51 169.053C1213.35 167.254 1215.77 164.854 1217.58 162.021C1219.4 159.188 1220.57 155.991 1221.02 152.656Z" fill="#FFB7B7"/>
<path d="M1018.63 370.52L1180.71 197.496L1158.85 162.729L955.561 334.703L1018.63 370.52Z" fill="#3F3D56"/>
<path d="M982.457 265.391C1013.86 265.391 1039.31 239.93 1039.31 208.522C1039.31 177.114 1013.86 151.652 982.457 151.652C951.058 151.652 925.604 177.114 925.604 208.522C925.604 239.93 951.058 265.391 982.457 265.391Z" fill="#2F2E41"/>
<path d="M987.027 176.395C999.261 163.986 1014.07 154.409 1030.4 148.341C1040.88 144.456 1052.29 142.055 1063.25 144.262C1074.22 146.468 1084.58 154.053 1087.64 164.81C1090.14 173.607 1087.56 183.078 1083.68 191.358C1079.8 199.638 1074.62 207.317 1071.48 215.906C1068.28 224.671 1067.31 234.096 1068.68 243.327C1070.04 252.558 1073.69 261.302 1079.28 268.766C1084.88 276.229 1092.26 282.176 1100.74 286.066C1109.22 289.956 1118.53 291.666 1127.84 291.041C1117.07 292.486 1107.14 297.548 1096.62 300.243C1086.09 302.937 1073.67 302.755 1065.84 295.211C1057.57 287.23 1057.4 274.253 1057.8 262.76C1058.4 245.675 1058.99 228.591 1059.59 211.506C1059.89 202.793 1060.15 193.801 1057.01 185.669C1053.87 177.537 1046.4 170.416 1037.68 170.49C1031.08 170.546 1025.23 174.549 1019.94 178.496C1014.64 182.443 1009.03 186.655 1002.45 187.242C995.874 187.829 988.362 182.959 988.854 176.37L987.027 176.395Z" fill="#2F2E41"/>
<path d="M766.527 590.374C761.069 591.891 755.245 591.352 750.157 588.86C745.07 586.368 741.073 582.096 738.924 576.853C736.775 571.61 736.623 565.761 738.498 560.414C740.372 555.066 744.142 550.593 749.094 547.84L798.209 492.103L839.751 501.08L781.323 558.326C782.759 561.369 783.511 564.691 783.525 568.056C783.539 571.422 782.816 574.75 781.405 577.805C779.994 580.861 777.931 583.57 775.361 585.741C772.79 587.913 769.775 589.494 766.527 590.374H766.527Z" fill="#FFB7B7"/>
<path d="M928.116 390.828L805.701 544.534L768.387 527.397L912.271 303.323L928.116 390.828Z" fill="#3F3D56"/>
<path d="M830.44 854.957L801.266 854.499L804.775 953.967H830.436L830.44 854.957Z" fill="#FFB7B7"/>
<path d="M836.981 945.586L786.444 945.584H786.442C777.9 945.584 769.709 948.979 763.669 955.02C757.629 961.062 754.236 969.256 754.235 977.799V978.846L836.98 978.849L836.981 945.586Z" fill="#2F2E41"/>
<path d="M1023.61 828.575L991.737 849.042L1055.49 925.761L1077.08 911.892L1023.61 828.575Z" fill="#FFB7B7"/>
<path d="M1078.06 901.302L1035.54 928.613L1035.53 928.614C1028.35 933.231 1023.29 940.514 1021.47 948.862C1019.65 957.21 1021.22 965.939 1025.83 973.129L1026.4 974.01L1096.03 929.294L1078.06 901.302Z" fill="#2F2E41"/>
<path d="M1034.96 524.843C1034.96 524.843 964.15 289.581 941.393 286.402C918.636 283.222 881.969 346.767 881.969 346.767C834.429 407.441 785.408 603.977 785.408 603.977C785.408 603.977 867.128 609.092 926.866 640.884C986.604 672.677 1057.1 639.275 1057.1 639.275L1034.96 524.843Z" fill="#3F3D56"/>
<path opacity="0.1" d="M1034.96 524.843C1034.96 524.843 964.15 289.581 941.393 286.401C918.636 283.222 891.282 347.412 891.282 347.412C867.593 445.354 785.408 603.977 785.408 603.977C785.408 603.977 867.128 609.092 926.866 640.884C986.604 672.676 1057.1 639.275 1057.1 639.275L1034.96 524.843Z" fill="black"/>
<path d="M976.866 454.454V572.672L990.774 743.919L1060.26 873.455L1027.1 897.151L932.342 773.933L894.865 651.586L836.009 922.426L791.79 919.267L822.5 543.752L880.775 438.054L976.866 454.454Z" fill="#2F2E41"/>
<path d="M905.469 340.112C883.36 362.227 903.89 385.923 903.89 385.923L878.622 442.793L978.114 469.648L1012.88 314.239L989.194 288.963C941.817 287.384 941.792 286.401 941.792 286.401C933.491 294.527 905.469 340.112 905.469 340.112Z" fill="#3F3D56"/>
<path d="M1016.89 298.138C1012.37 294.802 1007.24 292.395 1001.78 291.058C996.325 289.721 990.659 289.48 985.11 290.349C979.562 291.218 974.24 293.179 969.454 296.12C964.669 299.06 960.514 302.921 957.23 307.479C932.219 342.315 909.091 398.567 940.957 468.723C992.123 581.372 1036.65 639.039 1054.75 639.033C1055.54 639.039 1056.33 638.916 1057.08 638.667C1068.22 634.886 1084.33 616.027 1087.24 599.407C1088.29 593.459 1088.04 585.173 1080.93 579.483C1060.5 563.139 1023.83 512.248 1012.39 445.265C1006.06 408.253 1018.32 374.538 1029.72 352.773C1034.54 343.768 1035.95 333.328 1033.69 323.368C1031.43 313.407 1025.66 304.594 1017.44 298.543L1016.89 298.138Z" fill="#3F3D56"/>
<path d="M985.382 259.804C1005.66 248.714 1013.12 223.279 1002.03 202.992C990.943 182.705 965.515 175.249 945.234 186.339C924.953 197.429 917.5 222.865 928.586 243.151C939.673 263.438 965.101 270.894 985.382 259.804Z" fill="#FFB7B7"/>
<path d="M906.452 219.907H966.883L967.503 211.229L970.601 219.907H979.906L981.134 202.707L987.275 219.907H1005.28V219.055C1005.27 207.08 1000.5 195.599 992.04 187.132C983.575 178.664 972.097 173.901 960.126 173.888H951.606C939.635 173.901 928.157 178.664 919.692 187.132C911.227 195.599 906.466 207.08 906.452 219.055V219.907Z" fill="#2F2E41"/>
<path d="M996.15 251.102L1021.94 242.731V180.087H973.228L974.433 181.291C991.212 198.054 1009.87 257.523 996.15 251.102Z" fill="#2F2E41"/>
</g>
<defs>
<clipPath id="clip0_53_3172">
<rect width="1289" height="981" fill="white"/>
</clipPath>
</defs>
</svg>
