<svg width="94" height="94" viewBox="0 0 94 94" fill="none" xmlns="http://www.w3.org/2000/svg">
<path d="M83.9286 0H10.0714C4.51116 0 0 4.51116 0 10.0714V83.9286C0 89.4888 4.51116 94 10.0714 94H83.9286C89.4888 94 94 89.4888 94 83.9286V10.0714C94 4.51116 89.4888 0 83.9286 0ZM73.6683 33.3196C73.7103 33.9071 73.7103 34.5156 73.7103 35.1031C73.7103 53.2946 59.8621 74.2558 34.5576 74.2558C26.7522 74.2558 19.5134 71.9897 13.4286 68.0871C14.5406 68.2129 15.6107 68.2549 16.7438 68.2549C23.1853 68.2549 29.1022 66.0728 33.8232 62.3799C27.7804 62.254 22.7027 58.2884 20.9612 52.833C23.0804 53.1478 24.9897 53.1478 27.1719 52.5813C20.8772 51.3013 16.1562 45.7621 16.1562 39.0687V38.9009C17.9817 39.929 20.1219 40.5585 22.367 40.6424C20.4795 39.3869 18.9321 37.6837 17.8631 35.6847C16.794 33.6856 16.2365 31.4531 16.2402 29.1862C16.2402 26.6263 16.9116 24.2763 18.1076 22.2411C24.8848 30.592 35.0612 36.0473 46.4754 36.6348C44.5241 27.2978 51.5112 19.7232 59.904 19.7232C63.8696 19.7232 67.4366 21.3808 69.9545 24.0665C73.0598 23.479 76.0393 22.325 78.683 20.7513C77.6549 23.9406 75.4938 26.6263 72.6402 28.3259C75.4098 28.0321 78.0955 27.2558 80.5714 26.1857C78.704 28.9344 76.354 31.3683 73.6683 33.3196Z" fill="#464346"/>
</svg>
