<svg width="25" height="19" viewBox="0 0 25 19" fill="none" xmlns="http://www.w3.org/2000/svg">
<path d="M12.5 18.8176C11.9682 18.815 11.4438 18.6939 10.9646 18.4634C10.4854 18.2328 10.0636 17.8984 9.7297 17.4846L0.96058 6.86163C0.448167 6.22211 0.125713 5.4515 0.0299628 4.63763C-0.0657871 3.82375 0.0690182 2.99935 0.419018 2.25836C0.702878 1.61438 1.16611 1.06571 1.75338 0.677885C2.34065 0.290063 3.02715 0.0794813 3.73087 0.0712891H21.2691C21.9728 0.0794813 22.6593 0.290063 23.2466 0.677885C23.8339 1.06571 24.2971 1.61438 24.581 2.25836C24.931 2.99935 25.0658 3.82375 24.97 4.63763C24.8743 5.4515 24.5518 6.22211 24.0394 6.86163L15.2703 17.4846C14.9364 17.8984 14.5146 18.2328 14.0354 18.4634C13.5562 18.6939 13.0318 18.815 12.5 18.8176Z" fill="white"/>
</svg>
