<svg width="387" height="358" viewBox="0 0 387 358" fill="none" xmlns="http://www.w3.org/2000/svg">
<g clip-path="url(#clip0_11_7513)">
<path d="M352.575 286.815L321.16 240.104C321.16 240.104 368.736 256.73 363.337 286.815H352.575Z" fill="#E5E5E5"/>
<path d="M26.9309 287.125L25.7383 287.101C26.1995 273.828 27.6144 260.604 29.9718 247.534C35.1289 219.551 43.7042 201.172 55.4596 192.91L56.1444 193.887C28.6837 213.187 26.9449 286.387 26.9309 287.125Z" fill="#E5E5E5"/>
<path d="M41.8371 286.839L40.6445 286.816C40.6702 285.494 41.4156 254.336 53.6694 245.724L54.3542 246.701C42.5947 254.965 41.843 286.521 41.8371 286.839Z" fill="#E5E5E5"/>
<path d="M62.9279 193.996C66.2212 193.996 68.8909 191.323 68.8909 188.027C68.8909 184.73 66.2212 182.058 62.9279 182.058C59.6346 182.058 56.9648 184.73 56.9648 188.027C56.9648 191.323 59.6346 193.996 62.9279 193.996Z" fill="#464346"/>
<path d="M59.9747 245.33C63.268 245.33 65.9378 242.657 65.9378 239.361C65.9378 236.064 63.268 233.392 59.9747 233.392C56.6815 233.392 54.0117 236.064 54.0117 239.361C54.0117 242.657 56.6815 245.33 59.9747 245.33Z" fill="#464346"/>
<path d="M39.0592 197.573C40.1799 204.739 37.259 211.148 37.259 211.148C37.259 211.148 32.5212 205.939 31.4006 198.774C30.2799 191.608 33.2008 185.2 33.2008 185.2C33.2008 185.2 37.9385 190.408 39.0592 197.573Z" fill="#E5E5E5"/>
<path d="M58.5493 214.976C51.696 217.329 44.8828 215.566 44.8828 215.566C44.8828 215.566 49.1809 209.989 56.0342 207.636C62.8874 205.282 69.7007 207.045 69.7007 207.045C69.7007 207.045 65.4026 212.622 58.5493 214.976Z" fill="#E5E5E5"/>
<path d="M58.7705 260.437C55.6688 261.412 52.3656 261.555 49.1914 260.851C51.2068 258.282 53.9213 256.352 57.0076 255.292C60.094 254.232 63.4206 254.089 66.5867 254.878C64.5125 257.384 61.8172 259.301 58.7705 260.437Z" fill="#E5E5E5"/>
<path d="M386.404 288.008H0.596302C0.438153 288.008 0.28649 287.945 0.174661 287.833C0.0628331 287.721 0 287.57 0 287.411C0 287.253 0.0628331 287.101 0.174661 286.989C0.28649 286.877 0.438153 286.814 0.596302 286.814H386.404C386.562 286.814 386.714 286.877 386.825 286.989C386.937 287.101 387 287.253 387 287.411C387 287.57 386.937 287.721 386.825 287.833C386.714 287.945 386.562 288.008 386.404 288.008Z" fill="#CBCBCB"/>
<path d="M244.36 315.526L239.482 328.236L188.186 315.448L195.385 296.689L244.36 315.526Z" fill="#FFB7B7"/>
<path d="M257.911 317.018L242.181 358L241.663 357.801C237.437 356.176 234.029 352.936 232.189 348.795C230.349 344.655 230.227 339.952 231.85 335.721L231.85 335.72L241.458 310.689L257.911 317.018Z" fill="#2F2E41"/>
<path d="M166.412 156.385L144.058 158.48L142.949 225.06C143.246 228.323 144.807 231.34 147.298 233.465C149.789 235.59 153.013 236.654 156.278 236.429L170.451 235.452L166.412 156.385Z" fill="#E5E5E5"/>
<path d="M245.221 153.108L229.926 152.911L229.02 232.022C232.4 232.135 235.766 231.549 238.91 230.302C242.054 229.055 244.908 227.172 247.293 224.772C249.678 222.372 251.543 219.506 252.772 216.352C254.002 213.198 254.569 209.825 254.438 206.442L245.221 153.108Z" fill="#E5E5E5"/>
<path d="M156.47 260.127C156.108 262.421 155.582 264.687 154.897 266.907C154.125 269.079 152.933 271.088 152.227 273.283C149.978 280.28 153.096 288.081 158.077 293.481C162.396 298.146 167.972 301.46 174.13 303.023C178.624 304.155 183.295 304.317 187.926 304.474C200.748 304.91 213.9 305.299 226.05 301.174C229.888 299.839 233.596 298.153 237.126 296.137C238.24 295.606 239.222 294.832 240 293.872C240.927 292.552 241.045 290.839 241.037 289.225C241.01 283.784 239.908 278.37 240.169 272.936C240.314 269.925 240.877 266.917 240.6 263.916C240.217 260.508 238.79 257.301 236.516 254.735C234.242 252.17 231.232 250.37 227.896 249.583C224.45 248.842 220.875 249.246 217.366 249.584C208.258 250.46 199.11 250.869 189.96 250.81C180.611 250.751 171.32 249.322 162.017 249.173C159.266 249.129 159.322 249.978 158.446 252.643C157.639 255.096 156.979 257.595 156.47 260.127Z" fill="#2F2E41"/>
<path d="M119.911 255.704C117.397 255.072 114.807 254.796 112.216 254.886C109.494 255.036 106.835 255.765 104.416 257.024C101.998 258.283 99.8744 260.043 98.1877 262.187C96.501 264.33 95.2896 266.809 94.634 269.458C93.9784 272.107 93.8936 274.865 94.3853 277.549C95.0131 280.457 96.0392 283.264 97.4345 285.89C99.4753 290.036 101.923 294.172 105.701 296.828C107.911 298.383 110.469 299.351 112.996 300.305L132.894 307.808C135.821 308.912 138.749 310.016 141.705 311.039C156.556 316.178 172.04 319.259 187.726 320.198C192.504 320.483 197.354 320.562 202.015 319.473C203.121 319.215 204.301 318.829 204.941 317.89C205.321 317.229 205.544 316.49 205.595 315.729L206.82 307.148C206.992 305.94 207.158 304.668 206.715 303.531C206.155 302.089 204.749 301.182 203.408 300.411C190.327 292.89 175.053 288.741 164.042 278.419C161.45 275.989 159.28 272.137 156.131 270.486C152.56 268.614 148.354 267.546 144.662 265.821C136.592 262.05 128.658 257.717 119.911 255.704Z" fill="#2F2E41"/>
<path opacity="0.1" d="M139.777 267.272C146.81 269.478 176.504 284.761 181.593 290.098C180.911 290.344 157.764 277.359 157.07 277.15C150.757 275.253 144.408 273.344 138.413 270.569C137.206 270.01 130.577 267.385 130.877 265.862C131.216 264.143 138.529 266.88 139.777 267.272Z" fill="black"/>
<path d="M182.222 134.007L163.286 148.399C163.286 148.399 143.304 149.025 143.98 161.811C144.655 174.597 152.652 235.133 152.652 235.133L154.387 255.963L187.299 265.35C205.081 270.422 223.869 270.825 241.852 266.52L237.941 245.624C237.941 245.624 253.778 150.72 244.237 146.542C234.696 142.364 228.733 143.557 228.733 143.557L216.774 133.111L182.222 134.007Z" fill="#E5E5E5"/>
<path d="M238.274 110.759C238.274 129.443 221.016 126.617 199.726 126.617C178.436 126.617 161.178 129.443 161.178 110.759C161.178 92.0755 169.608 58.957 199.726 58.957C230.882 58.957 238.274 92.0755 238.274 110.759Z" fill="#2F2E41"/>
<path d="M219.764 117.091C229.894 106.951 229.894 90.5102 219.764 80.37C209.634 70.2297 193.21 70.2297 183.08 80.37C172.95 90.5102 172.95 106.951 183.08 117.091C193.21 127.231 209.634 127.231 219.764 117.091Z" fill="#FFB7B7"/>
<path d="M169.627 98.0728H179.886L184.413 85.3866L185.318 98.0728H190.221L192.862 90.6725L193.39 98.0728H229.826C229.826 90.7829 226.933 83.7915 221.783 78.6367C216.634 73.4819 209.649 70.5859 202.367 70.5859H197.086C189.803 70.5859 182.819 73.4819 177.67 78.6367C172.52 83.7915 169.627 90.7829 169.627 98.0728Z" fill="#2F2E41"/>
<path d="M225.751 136.991H173.873V199.666H225.751V136.991Z" fill="#464346"/>
<path d="M176.732 314.929L181.611 327.639L232.908 314.851L225.707 296.092L176.732 314.929Z" fill="#FFB7B7"/>
<path d="M179.633 310.092L189.241 335.123L189.241 335.124C190.864 339.355 190.742 344.058 188.902 348.198C187.062 352.339 183.654 355.578 179.428 357.204L178.91 357.403L163.18 316.42L179.633 310.092Z" fill="#2F2E41"/>
<path d="M279.269 250.839C283.39 249.805 287.662 249.513 291.885 249.976C295.257 250.348 298.732 251.288 301.195 253.625C304.192 256.469 305.155 260.868 305.235 265.001C305.367 273.233 302.639 281.256 297.518 287.699C296.268 289.329 294.78 290.762 293.106 291.951C291.3 293.082 289.375 294.011 287.366 294.72L242.805 312.314C231.082 316.943 219.318 321.584 207.091 324.636C206.426 324.957 205.661 325.001 204.964 324.757C204.267 324.514 203.695 324.003 203.374 323.338C203.364 323.318 203.355 323.297 203.345 323.277C199.441 317.694 196.166 311.696 193.579 305.393C193.456 305.243 193.372 305.066 193.332 304.877C193.293 304.687 193.299 304.491 193.351 304.305C193.404 304.118 193.5 303.947 193.632 303.806C193.764 303.665 193.929 303.557 194.111 303.493L225.629 285.366C227.886 284.067 230.169 282.75 232.044 280.941C233.406 279.62 234.521 278.065 235.337 276.351C235.991 274.985 236.052 271.762 236.886 270.752C237.703 269.764 240.498 269.685 241.789 269.296C243.61 268.738 245.392 268.063 247.127 267.276C254.177 264.119 260.455 259.531 267.214 255.835C271.005 253.665 275.055 251.986 279.269 250.839Z" fill="#2F2E41"/>
<path opacity="0.1" d="M261.402 264.377C255.987 268.448 248.976 272.19 243.609 276.369C241.778 277.795 211.244 294.978 210.812 297.261C215.819 298.105 247.713 275.77 252.277 273.541C256.84 271.313 260.885 268.17 264.893 265.05C265.915 264.255 270.244 261.865 267.312 260.977C265.66 260.477 262.622 263.563 261.402 264.377Z" fill="black"/>
<path d="M358.727 107.273C369.018 107.273 377.36 98.9226 377.36 88.6213C377.36 78.3201 369.018 69.9692 358.727 69.9692C348.436 69.9692 340.094 78.3201 340.094 88.6213C340.094 98.9226 348.436 107.273 358.727 107.273Z" fill="#F1F1F1"/>
<path d="M324.243 110.614C331.462 110.614 337.314 104.756 337.314 97.5296C337.314 90.3033 331.462 84.4453 324.243 84.4453C317.024 84.4453 311.172 90.3033 311.172 97.5296C311.172 104.756 317.024 110.614 324.243 110.614Z" fill="#F1F1F1"/>
<path d="M84.8009 102.079C90.5892 102.079 95.2815 97.3816 95.2815 91.5874C95.2815 85.7933 90.5892 81.0962 84.8009 81.0962C79.0126 81.0962 74.3203 85.7933 74.3203 91.5874C74.3203 97.3816 79.0126 102.079 84.8009 102.079Z" fill="#F1F1F1"/>
<path d="M102.057 109.134C106.118 109.134 109.409 105.839 109.409 101.774C109.409 97.7095 106.118 94.4146 102.057 94.4146C97.9967 94.4146 94.7051 97.7095 94.7051 101.774C94.7051 105.839 97.9967 109.134 102.057 109.134Z" fill="#F1F1F1"/>
<path d="M203.728 16.0392C208.153 16.0392 211.74 12.4487 211.74 8.0196C211.74 3.5905 208.153 0 203.728 0C199.304 0 195.717 3.5905 195.717 8.0196C195.717 12.4487 199.304 16.0392 203.728 16.0392Z" fill="#F1F1F1"/>
<path opacity="0.17" d="M155.984 176.984L156.7 171.45C156.7 171.45 183.414 173.402 179.24 179.968C175.066 186.534 164.929 187.131 164.929 187.131L155.984 176.984Z" fill="#2F2E41"/>
<path d="M176.149 152.924C177.68 153.093 179.153 153.598 180.465 154.405C181.777 155.211 182.895 156.298 183.737 157.588C184.505 158.765 185.027 160.085 185.272 161.469C185.517 162.853 185.481 164.272 185.164 165.642C184.848 167.011 184.258 168.302 183.43 169.438C182.603 170.574 181.554 171.53 180.348 172.25C179.906 172.511 179.445 172.738 178.968 172.929L162.548 223.205C162.072 224.197 161.405 225.085 160.585 225.818C159.765 226.552 158.809 227.115 157.771 227.477C156.732 227.839 155.633 227.992 154.536 227.927C153.438 227.862 152.364 227.581 151.376 227.099C150.388 226.617 149.504 225.945 148.776 225.12C148.048 224.296 147.49 223.335 147.135 222.294C146.779 221.253 146.632 220.151 146.703 219.053C146.774 217.955 147.061 216.882 147.547 215.895L165.009 166.177C164.534 164.532 164.47 162.795 164.825 161.12C165.18 159.445 165.942 157.883 167.043 156.572C168.145 155.262 169.552 154.244 171.14 153.607C172.728 152.971 174.449 152.736 176.149 152.924Z" fill="#FFB7B7"/>
<path d="M156.23 171.922C156.23 171.922 165.639 188.013 179.241 179.968L166.059 230.466H154.952L143.463 228.318L146.68 207.454L156.23 171.922Z" fill="#E5E5E5"/>
<path d="M223.409 182.92L215.615 172.208C215.615 172.208 219.361 161.098 233.887 165.161C233.887 165.161 243.13 185.871 223.409 182.92Z" fill="#E5E5E5"/>
<path opacity="0.17" d="M223.409 182.92L215.615 172.208C215.615 172.208 219.361 161.098 233.887 165.161C233.887 165.161 243.13 185.871 223.409 182.92Z" fill="#2F2E41"/>
<path d="M225.472 145.496C227.721 146.543 229.519 148.362 230.541 150.624C231.562 152.886 231.739 155.44 231.038 157.821L248.5 207.538C248.987 208.525 249.274 209.599 249.345 210.697C249.416 211.795 249.269 212.896 248.913 213.938C248.557 214.979 248 215.939 247.272 216.764C246.544 217.589 245.66 218.261 244.672 218.743C243.683 219.225 242.609 219.506 241.512 219.571C240.415 219.636 239.315 219.483 238.277 219.121C237.239 218.759 236.282 218.195 235.462 217.462C234.643 216.729 233.976 215.841 233.5 214.848L217.08 164.572C216.603 164.382 216.141 164.155 215.699 163.893C214.493 163.173 213.445 162.217 212.617 161.081C211.79 159.946 211.2 158.654 210.883 157.285C210.567 155.916 210.53 154.496 210.775 153.112C211.021 151.728 211.543 150.408 212.31 149.231C213.153 147.942 214.27 146.854 215.582 146.048C216.894 145.242 218.368 144.736 219.898 144.568C221.806 144.351 223.737 144.673 225.472 145.496Z" fill="#FFB7B7"/>
<path d="M215.615 172.209C215.615 172.209 228.475 180.019 233.887 165.161L252.007 212.922L246.623 222.349L245.844 222.414C242.632 222.682 239.403 222.165 236.434 220.909C233.465 219.652 230.845 217.693 228.8 215.199C224.627 210.113 221.787 204.066 220.535 197.606L215.615 172.209Z" fill="#E5E5E5"/>
</g>
<defs>
<clipPath id="clip0_11_7513">
<rect width="387" height="358" fill="white"/>
</clipPath>
</defs>
</svg>
