<svg width="387" height="338" viewBox="0 0 387 338" fill="none" xmlns="http://www.w3.org/2000/svg">
<g clip-path="url(#clip0_11_7588)">
<path d="M64.19 117.664C63.2846 117.756 62.3734 117.777 61.4647 117.728C61.3098 117.711 61.1545 117.755 61.0321 117.852C60.9098 117.949 60.8302 118.09 60.8105 118.244L59.0722 131.303C58.9384 132.251 58.5509 133.145 57.9507 133.89C57.4559 134.483 57.088 135.172 56.87 135.913C56.652 136.655 56.5885 137.433 56.6834 138.2V160.383C56.6834 160.383 56.5712 163.34 58.8404 163.34C61.5562 163.682 64.3041 163.682 67.0199 163.34C67.0199 163.34 68.8367 162.996 68.8367 160.267V138.424C68.9753 137.662 68.9468 136.879 68.7532 136.129C68.5595 135.379 68.2054 134.681 67.7153 134.081C67.1351 133.334 66.7601 132.447 66.6274 131.509L64.8218 118.177C64.8013 118.027 64.7245 117.891 64.6072 117.795C64.4898 117.7 64.3407 117.653 64.19 117.664Z" fill="white"/>
<path d="M62.9221 163.97C61.5495 163.97 60.1782 163.885 58.8162 163.715C58.5119 163.722 58.2094 163.666 57.9276 163.55C57.6459 163.435 57.3911 163.262 57.1791 163.043C56.2557 162.083 56.307 160.438 56.3097 160.368L56.3094 138.222C56.2131 137.408 56.2835 136.583 56.5163 135.797C56.7492 135.011 57.1396 134.28 57.6637 133.65C58.2193 132.959 58.578 132.13 58.7018 131.251L60.4399 118.195C60.4737 117.944 60.6039 117.716 60.8027 117.559C61.0016 117.402 61.2536 117.329 61.5052 117.356C62.388 117.402 63.273 117.381 64.1525 117.292L64.1629 117.291C64.4083 117.273 64.6513 117.349 64.8425 117.504C65.0337 117.66 65.1586 117.882 65.192 118.126L66.9978 131.459C67.1219 132.331 67.4709 133.156 68.0103 133.851C68.5299 134.487 68.9061 135.228 69.1132 136.023C69.3204 136.818 69.3536 137.648 69.2105 138.457V160.266C69.2105 163.271 67.1106 163.704 67.0893 163.708C65.7071 163.883 64.3153 163.97 62.9221 163.97ZM61.4138 118.1C61.3582 118.097 61.3036 118.115 61.2606 118.151C61.2176 118.186 61.1894 118.236 61.1813 118.292L59.4426 131.353C59.2996 132.369 58.8846 133.327 58.2415 134.125C57.7793 134.68 57.4355 135.323 57.2313 136.016C57.0271 136.709 56.9668 137.436 57.0543 138.153L57.0571 138.2V160.382C57.0564 160.41 57.0167 161.797 57.7194 162.526C57.8648 162.674 58.0398 162.79 58.233 162.866C58.4261 162.942 58.6331 162.976 58.8403 162.966L58.887 162.969C61.5718 163.306 64.2883 163.306 66.9732 162.969C67.0087 162.96 68.4628 162.628 68.4628 160.266L68.4689 138.357C68.5983 137.648 68.572 136.92 68.3919 136.223C68.2118 135.525 67.8822 134.875 67.426 134.318C66.8032 133.517 66.4003 132.567 66.2573 131.562L64.4513 118.227C64.4433 118.172 64.4153 118.123 64.3727 118.088C64.3301 118.052 64.2759 118.035 64.2208 118.037C63.2984 118.13 62.3703 118.151 61.4446 118.102C61.4344 118.1 61.4241 118.1 61.4138 118.1H61.4138Z" fill="#3F3D56"/>
<path d="M61.4453 138.597H64.2005C65.2961 138.597 66.3468 139.033 67.1215 139.808C67.8961 140.584 68.3314 141.637 68.3314 142.734V153.116C68.3314 154.213 67.8961 155.265 67.1215 156.041C66.3468 156.817 65.2961 157.253 64.2005 157.253H61.4453C60.3498 157.253 59.299 156.817 58.5244 156.041C57.7497 155.265 57.3145 154.213 57.3145 153.116V142.734C57.3145 142.19 57.4213 141.652 57.6289 141.151C57.8365 140.649 58.1408 140.193 58.5244 139.808C58.9079 139.424 59.3633 139.119 59.8645 138.912C60.3657 138.704 60.9029 138.597 61.4453 138.597Z" fill="#464346"/>
<path d="M10.7926 329.28H19.7751L24.0484 294.581L10.791 294.582L10.7926 329.28Z" fill="#9F616A"/>
<path d="M8.50195 326.343L26.1917 326.342H26.1924C29.1822 326.342 32.0495 327.532 34.1636 329.649C36.2777 331.766 37.4654 334.638 37.4656 337.632V337.999L8.50249 338L8.50195 326.343Z" fill="#2F2E41"/>
<path d="M5.14556 205.345C5.14556 205.345 1.25263 209.752 7.69873 226.931L6.56331 321.13L27.4531 320.721L32.0449 274.772L40.4052 207.719L5.14556 205.345Z" fill="#2F2E41"/>
<path d="M47.5699 218.368L47.3412 218.333C20.6174 214.251 0.451098 210.338 0.250515 210.299L0 210.25L7.00545 193.186C6.95011 191.403 5.43367 141.33 8.33662 126.943C11.1469 113.016 24.3933 110.734 25.9028 110.519L27.4185 105.49L46.5675 115.469L49.9072 126.98L50.5855 158.53L47.5699 218.368Z" fill="#3F3D56"/>
<path d="M59.1037 153.431C58.2413 153.431 57.3883 153.61 56.5983 153.956C55.8082 154.302 55.0982 154.808 54.5129 155.442H22.3267L10.5371 157.955L12.4728 172.907L54.4118 163.874C55.1062 164.66 55.9859 165.258 56.9707 165.615C57.9555 165.973 59.0139 166.077 60.0494 165.92C61.0849 165.762 62.0644 165.347 62.8986 164.712C63.7327 164.078 64.3949 163.244 64.8247 162.288C65.2545 161.331 65.4381 160.282 65.3589 159.236C65.2797 158.19 64.9401 157.181 64.3712 156.3C63.8023 155.419 63.0222 154.695 62.102 154.194C61.1819 153.693 60.1511 153.431 59.1037 153.431H59.1037Z" fill="#9F616A"/>
<path d="M59.3814 99.8377C63.4906 92.3092 60.7279 82.87 53.2108 78.7546C45.6936 74.6392 36.2685 77.406 32.1592 84.9344C28.05 92.4629 30.8126 101.902 38.3298 106.018C45.847 110.133 55.2721 107.366 59.3814 99.8377Z" fill="#9F616A"/>
<path d="M31.1816 79.9665L30.4296 78.4506L34.2135 76.5678C34.2135 76.5678 38.3878 69.7656 45.9414 71.6771C53.4949 73.5887 56.8934 74.7327 56.8934 74.7327L60.6677 76.6347L58.7734 78.5224L62.1718 79.6664L59.9014 80.7961L62.543 82.3168L61.121 90.112C61.121 90.112 58.7591 84.1996 54.2184 86.459C49.6777 88.7184 41.3721 85.2911 41.3721 85.2911L34.1563 99.2768C34.1563 99.2768 32.6677 94.3741 30.0136 95.6814C30.0135 95.6814 23.233 84.8667 31.1816 79.9665Z" fill="#2F2E41"/>
<path d="M12.6785 175.71L8.99776 164.745L8.10742 128.193L9.67572 123.007C10.2402 121.141 11.1752 119.408 12.4245 117.912C13.6739 116.416 15.212 115.188 16.9466 114.301C18.6812 113.415 20.5766 112.888 22.5193 112.753C24.462 112.618 26.4119 112.877 28.2523 113.515C30.0926 114.152 31.7855 115.155 33.2294 116.464C34.6733 117.773 35.8386 119.36 36.6554 121.13C37.4722 122.901 37.9237 124.818 37.9828 126.767C38.042 128.717 37.7075 130.658 36.9996 132.475L28.5936 154.048L29.0209 154.878L47.2324 154.731L53.7014 166.392L12.6785 175.71Z" fill="#3F3D56"/>
<path d="M194.888 171.205C195.568 170.746 196.139 170.144 196.561 169.441C196.983 168.737 197.246 167.95 197.332 167.134C197.417 166.318 197.323 165.492 197.055 164.717C196.788 163.941 196.354 163.233 195.784 162.644L204.76 144.836L194.479 146.03L187.53 162.758C186.605 163.783 186.087 165.112 186.074 166.493C186.062 167.875 186.556 169.213 187.463 170.254C188.37 171.296 189.627 171.967 190.995 172.143C192.364 172.318 193.749 171.984 194.888 171.205Z" fill="#FFB7B7"/>
<path d="M266.88 297.347L258.79 297.346L254.941 266.095L266.881 266.096L266.88 297.347Z" fill="#FFB7B7"/>
<path d="M268.943 305.201L242.857 305.2V304.869C242.858 302.173 243.927 299.586 245.831 297.68C247.736 295.773 250.318 294.701 253.011 294.701H253.011L268.944 294.702L268.943 305.201Z" fill="#2F2E41"/>
<path d="M222.667 297.347L214.577 297.346L210.729 266.095L222.669 266.096L222.667 297.347Z" fill="#FFB7B7"/>
<path d="M222.752 305.201L196.666 305.2V304.869C196.666 302.173 197.736 299.586 199.64 297.68C201.544 295.773 204.127 294.701 206.819 294.701H206.82L222.752 294.702L222.752 305.201Z" fill="#2F2E41"/>
<path d="M222.005 165.356L214.087 183.626L207.555 288.639L224.052 287.978L228.557 237.918L242.457 193.331L250.447 243.038L253.747 286.656L267.397 287.248L272.837 165.356H222.005Z" fill="#2F2E41"/>
<path d="M261.588 75.2021L238.637 75.7771L225.163 82.7047L224.423 133.815L216.02 169.103C216.02 169.103 268.527 172.722 275.786 167.435L267.207 127.121L278.713 83.5542L261.588 75.2021Z" fill="#464346"/>
<path d="M228.707 83.552L226.571 82.1069C226.571 82.1069 217.719 84.7638 215.103 96.5842C215.103 96.5842 213.101 102.515 212.223 106.592C211.215 111.268 188.967 154.225 188.967 154.225L202.287 158.052L226.708 118.5L228.707 83.552Z" fill="#464346"/>
<path d="M278.354 177.758C277.827 177.13 277.444 176.394 277.232 175.601C277.02 174.808 276.984 173.979 277.126 173.17C277.269 172.362 277.587 171.595 278.057 170.924C278.528 170.252 279.14 169.691 279.85 169.282L276.125 149.686L285.679 153.673L287.752 171.671C288.36 172.912 288.492 174.332 288.123 175.664C287.755 176.995 286.911 178.145 285.753 178.895C284.594 179.646 283.201 179.944 281.838 179.735C280.474 179.525 279.234 178.822 278.354 177.758Z" fill="#FFB7B7"/>
<path d="M275.26 84.1647L277.711 83.3657C277.711 83.3657 285.488 88.3641 284.748 100.449C284.748 100.449 285.039 106.702 284.761 110.864C284.442 115.637 288.72 163.073 288.72 163.073H274.863L268.924 120.116L275.26 84.1647Z" fill="#464346"/>
<path d="M267.222 53.7589C267.222 56.9103 266.289 59.9909 264.541 62.6112C262.792 65.2315 260.308 67.2737 257.401 68.4797C254.493 69.6857 251.295 70.0012 248.208 69.3864C245.122 68.7716 242.287 67.2541 240.062 65.0257C237.837 62.7974 236.322 59.9583 235.708 56.8674C235.094 53.7766 235.409 50.5729 236.613 47.6614C237.818 44.7499 239.857 42.2614 242.473 40.5106C245.089 38.7597 248.165 37.8252 251.312 37.8252C255.521 37.8147 259.562 39.4792 262.546 42.4524C265.529 45.4257 267.211 49.4642 267.222 53.6795C267.222 53.706 267.222 53.7324 267.222 53.7589Z" fill="#FFB7B7"/>
<path d="M235.454 32.3575C237.318 28.3438 240.925 29.1374 244.079 30.4979C248.073 29.6105 251.872 26.9539 256.176 28.525C260.416 34.7003 274.65 32.8834 271.621 42.9368C271.617 45.3458 276.148 43.9436 275.357 47.889C277.756 55.4819 266.694 69.8617 260.344 66.8336C261.915 63.9508 265.502 57.4032 260.061 56.7538C248.355 67.6619 258.853 35.9822 244.145 45.1952C239.275 49.6586 232.608 36.8221 235.454 32.3575Z" fill="#2F2E41"/>
<path d="M281.138 179.348C281.895 179.5 282.677 179.484 283.429 179.302C284.18 179.119 284.882 178.773 285.485 178.289C286.088 177.806 286.578 177.195 286.92 176.501C287.263 175.807 287.449 175.046 287.466 174.272L327.414 136.615L318.425 129.435L281.916 168.803C280.616 168.861 279.382 169.394 278.449 170.302C277.515 171.21 276.946 172.429 276.85 173.729C276.754 175.029 277.138 176.319 277.928 177.354C278.718 178.39 279.86 179.099 281.138 179.348Z" fill="#9F616A"/>
<path d="M321.753 142.702L313.981 133.58C313.76 133.321 313.598 133.017 313.504 132.689C313.411 132.36 313.39 132.016 313.442 131.679C313.493 131.341 313.617 131.019 313.804 130.734C313.992 130.449 314.238 130.208 314.527 130.027L324.645 123.684C325.977 122.558 327.701 122.007 329.438 122.152C331.175 122.297 332.784 123.127 333.911 124.458C335.039 125.789 335.593 127.514 335.453 129.254C335.312 130.994 334.489 132.608 333.162 133.74L325.343 142.722C325.119 142.979 324.842 143.185 324.532 143.325C324.221 143.466 323.884 143.537 323.544 143.535C323.203 143.533 322.867 143.458 322.558 143.314C322.249 143.171 321.974 142.962 321.753 142.702V142.702Z" fill="#CBCBCB"/>
<path d="M300.856 328.518L291.088 328.517L286.441 290.787L300.857 290.788L300.856 328.518Z" fill="#9F616A"/>
<path d="M303.345 338L271.852 337.999V337.6C271.852 334.344 273.143 331.221 275.442 328.919C277.741 326.617 280.859 325.323 284.11 325.323H284.111L303.346 325.324L303.345 338Z" fill="#2F2E41"/>
<path d="M378.929 328.518L369.162 328.517L364.516 290.787L378.931 290.788L378.929 328.518Z" fill="#9F616A"/>
<path d="M381.422 338L349.928 337.999V337.6C349.928 334.344 351.22 331.221 353.518 328.919C355.817 326.617 358.935 325.323 362.186 325.323H362.187L381.422 325.324L381.422 338Z" fill="#2F2E41"/>
<path d="M352.658 162.703L362.503 126.273L349.731 119.083H331.903L324.969 126.513C324.969 126.513 313.384 134.585 316.188 143.529L320.711 163.901L313.793 196.256L278.935 244.67L270.684 292.224L303.165 300.752L338.289 231.488L355.319 308.182L387 306.586L376.083 213.594C376.083 213.594 372.971 185.266 356.659 167.578L352.658 162.703Z" fill="#2F2E41"/>
<path d="M372.99 194.935C373.539 194.39 373.962 193.731 374.229 193.005C374.497 192.279 374.602 191.503 374.537 190.731C374.473 189.96 374.24 189.212 373.855 188.54C373.471 187.869 372.944 187.29 372.312 186.844L364.673 135.231L353.709 138.698L364.685 188.407C364.007 189.52 363.761 190.843 363.993 192.126C364.225 193.408 364.918 194.561 365.942 195.366C366.966 196.17 368.249 196.571 369.548 196.491C370.847 196.412 372.071 195.858 372.99 194.935Z" fill="#9F616A"/>
<path d="M366.562 143.331L354.668 144.705C354.329 144.744 353.986 144.71 353.662 144.604C353.338 144.498 353.041 144.324 352.79 144.093C352.54 143.862 352.342 143.579 352.21 143.265C352.078 142.95 352.016 142.611 352.027 142.27L352.412 130.321C352.222 128.586 352.727 126.846 353.816 125.483C354.905 124.121 356.49 123.246 358.222 123.051C359.954 122.856 361.692 123.357 363.056 124.444C364.42 125.531 365.298 127.115 365.497 128.849L368.58 140.358C368.669 140.688 368.685 141.033 368.628 141.369C368.571 141.705 368.443 142.026 368.251 142.308C368.059 142.59 367.809 142.827 367.518 143.004C367.227 143.181 366.9 143.292 366.562 143.331V143.331Z" fill="#CBCBCB"/>
<path d="M320.879 108.723V93.3738C320.879 87.9188 323.043 82.6872 326.894 78.8299C330.746 74.9727 335.969 72.8057 341.416 72.8057C346.863 72.8057 352.087 74.9727 355.938 78.8299C359.79 82.6872 361.954 87.9188 361.954 93.3738V108.723C361.953 109.456 361.662 110.158 361.145 110.676C360.627 111.194 359.926 111.485 359.195 111.486H323.638C322.906 111.485 322.205 111.194 321.688 110.676C321.171 110.158 320.88 109.456 320.879 108.723Z" fill="#2F2E41"/>
<path d="M344.419 109.28C351.715 105.286 354.397 96.123 350.408 88.8153C346.419 81.5075 337.271 78.8218 329.974 82.8166C322.677 86.8114 319.995 95.9739 323.984 103.282C327.973 110.589 337.122 113.275 344.419 109.28Z" fill="#9F616A"/>
<path d="M316.021 94.6013C316.026 90.2877 317.74 86.1521 320.785 83.1019C323.831 80.0517 327.96 78.3359 332.267 78.3311H335.333C339.64 78.3359 343.769 80.0517 346.815 83.1019C349.861 86.1521 351.574 90.2877 351.579 94.6013V94.9083H345.101L342.891 88.7122L342.449 94.9083H339.102L337.987 91.7821L337.764 94.9083H316.021V94.6013Z" fill="#2F2E41"/>
<path d="M335.715 113.212C335.411 112.8 335.229 112.309 335.191 111.798C335.153 111.287 335.26 110.775 335.499 110.322C338.747 104.134 343.296 92.7008 337.259 85.6497L336.825 85.1431H354.35V111.495L338.43 114.308C338.268 114.337 338.105 114.351 337.941 114.351C337.507 114.351 337.078 114.248 336.691 114.05C336.304 113.852 335.97 113.565 335.715 113.212Z" fill="#2F2E41"/>
<path d="M174.631 127.244C174.409 127.473 174.205 127.719 174.022 127.98L145.466 127.28L142.135 121.184L132.291 125.016L137.141 136.383C137.533 137.301 138.212 138.067 139.075 138.566C139.939 139.065 140.941 139.27 141.931 139.151L174.193 135.247C174.954 136.212 175.99 136.922 177.164 137.283C178.338 137.644 179.594 137.638 180.764 137.266C181.934 136.895 182.964 136.175 183.716 135.204C184.468 134.232 184.907 133.053 184.974 131.826C185.042 130.598 184.734 129.379 184.093 128.33C183.451 127.282 182.506 126.454 181.383 125.957C180.26 125.459 179.013 125.316 177.807 125.546C176.601 125.776 175.493 126.368 174.631 127.244H174.631Z" fill="#FFB7B7"/>
<path d="M81.5445 300.924H90.9337L95.4004 264.654L81.543 264.654L81.5445 300.924Z" fill="#FFB7B7"/>
<path d="M79.1484 297.854L97.6392 297.853H97.64C100.765 297.853 103.762 299.097 105.972 301.31C108.182 303.523 109.424 306.524 109.424 309.654V310.038L79.149 310.039L79.1484 297.854Z" fill="#2F2E41"/>
<path d="M166.802 300.715L175.436 297.021L165.317 261.909L152.574 267.361L166.802 300.715Z" fill="#FFB7B7"/>
<path d="M163.395 298.834L180.399 291.559L180.399 291.558C183.273 290.329 186.517 290.293 189.417 291.459C192.318 292.625 194.637 294.897 195.865 297.775L196.015 298.128L168.175 310.039L163.395 298.834Z" fill="#2F2E41"/>
<path d="M127.182 135.101L127.861 146.12L108.015 148.247L87.248 150.472L93.3601 133.741L127.182 135.101Z" fill="#FFB7B7"/>
<path d="M127.879 139.055C127.654 138.966 105.238 130.234 91.469 137.374L91.1304 137.55L88.3836 124.009L86.8184 94.8977L97.0031 90.078L99.8072 83.7872L118.907 82.6553L122.833 88.0462L136.196 92.4324L128.209 139.185L127.879 139.055Z" fill="#E4E4E4"/>
<path d="M128.582 112.778L130.945 94.1867L136.324 92.5469L136.415 92.5804C136.539 92.626 139.462 93.7467 140.263 97.8003C141.031 101.691 146.816 125.903 146.874 126.147L146.932 126.39L133.339 131.836L128.582 112.778Z" fill="#E4E4E4"/>
<path d="M159.808 294.341L177.902 290.623L148.982 210.704L139.085 183.444C139.085 183.444 132.807 161.588 129.971 153.13L128.259 141.781L87.7404 146.272C87.7404 146.272 76.4236 162.917 79.8616 190.047L78.3066 292.017L96.4008 292.947L111.557 190.104L138.157 246.482C138.157 246.482 146.541 270.54 152.539 275.755L159.808 294.341Z" fill="#2F2E41"/>
<path d="M103.991 150.057C103.672 150.05 103.353 150.067 103.037 150.11L84.1346 128.663L86.3334 122.071L76.8343 117.448L71.8093 128.738C71.4034 129.65 71.3038 130.669 71.5256 131.643C71.7473 132.617 72.2784 133.492 73.0392 134.137L97.8325 155.177C97.6435 156.392 97.8282 157.636 98.3622 158.743C98.8962 159.85 99.7541 160.768 100.822 161.375C101.89 161.982 103.117 162.249 104.34 162.141C105.562 162.032 106.724 161.554 107.668 160.768C108.613 159.983 109.296 158.928 109.628 157.744C109.959 156.56 109.923 155.303 109.524 154.14C109.125 152.978 108.381 151.964 107.393 151.235C106.404 150.505 105.218 150.095 103.991 150.057Z" fill="#FFB7B7"/>
<path d="M75.123 120.625L82.5129 99.5443C83.3434 97.0593 84.3841 95.5496 85.6062 95.057C85.8469 94.9485 86.1075 94.8912 86.3714 94.8888C86.6354 94.8863 86.897 94.9387 87.1397 95.0426L90.4534 99.2353L93.5288 112.174L85.6436 130.75L75.123 120.625Z" fill="#E4E4E4"/>
<path d="M124.037 78.2929H91.5951C90.9278 78.2922 90.288 78.0263 89.8162 77.5538C89.3443 77.0812 89.0789 76.4405 89.0781 75.7722V61.7678C89.0781 56.7908 91.0523 52.0176 94.5663 48.4983C98.0803 44.9791 102.846 43.002 107.816 43.002C112.785 43.002 117.551 44.9791 121.065 48.4983C124.579 52.0176 126.554 56.7908 126.554 61.7678V75.7721C126.553 76.4405 126.287 77.0812 125.816 77.5538C125.344 78.0264 124.704 78.2922 124.037 78.2929Z" fill="#2F2E41"/>
<path d="M111.666 77.9666C119.253 77.9666 125.403 71.8067 125.403 64.2082C125.403 56.6096 119.253 50.4497 111.666 50.4497C104.078 50.4497 97.9277 56.6096 97.9277 64.2082C97.9277 71.8067 104.078 77.9666 111.666 77.9666Z" fill="#FFB7B7"/>
<path d="M130.986 63.1682H111.149L110.946 60.3159L109.929 63.1682H106.874L106.471 57.515L104.455 63.1682H98.5449V62.8881C98.5493 58.9524 100.112 55.1792 102.891 52.3963C105.67 49.6133 109.437 48.0479 113.367 48.0435H116.164C120.094 48.0479 123.861 49.6133 126.64 52.3962C129.419 55.1792 130.982 58.9524 130.986 62.8881L130.986 63.1682Z" fill="#2F2E41"/>
<path d="M110.987 80.9071C110.837 80.9069 110.688 80.8937 110.541 80.8677L96.0156 78.3009V54.2583H112.006L111.61 54.7206C106.102 61.1538 110.251 71.5854 113.215 77.2309C113.433 77.6444 113.531 78.1112 113.496 78.5777C113.461 79.0442 113.295 79.4914 113.018 79.8677C112.786 80.1895 112.48 80.4515 112.127 80.6321C111.774 80.8128 111.383 80.9071 110.987 80.9071Z" fill="#2F2E41"/>
<path d="M284.987 138.698C284.081 138.789 283.17 138.81 282.262 138.761C282.107 138.745 281.951 138.789 281.829 138.886C281.707 138.982 281.627 139.123 281.607 139.278L279.869 152.337C279.735 153.285 279.348 154.179 278.748 154.924C278.253 155.517 277.885 156.206 277.667 156.947C277.449 157.688 277.385 158.467 277.48 159.233V181.416C277.48 181.416 277.368 184.374 279.637 184.374C282.353 184.716 285.101 184.716 287.817 184.374C287.817 184.374 289.634 184.03 289.634 181.3V159.458C289.772 158.696 289.744 157.913 289.55 157.163C289.356 156.413 289.002 155.714 288.512 155.115C287.932 154.367 287.557 153.481 287.424 152.543L285.619 139.211C285.598 139.061 285.521 138.924 285.404 138.829C285.287 138.734 285.138 138.687 284.987 138.698Z" fill="white"/>
<path d="M283.719 185.005C282.346 185.005 280.975 184.919 279.613 184.749C279.309 184.756 279.006 184.7 278.725 184.585C278.443 184.469 278.188 184.297 277.976 184.078C277.053 183.117 277.104 181.472 277.107 181.402L277.106 159.257C277.01 158.442 277.08 157.617 277.313 156.831C277.546 156.045 277.936 155.314 278.461 154.685C279.016 153.993 279.375 153.164 279.499 152.285L281.237 139.229C281.271 138.978 281.401 138.75 281.6 138.593C281.799 138.436 282.05 138.364 282.302 138.39C283.185 138.436 284.07 138.415 284.949 138.326L284.96 138.325C285.205 138.307 285.448 138.383 285.639 138.539C285.831 138.694 285.956 138.916 285.989 139.16L287.795 152.493C287.919 153.365 288.268 154.19 288.807 154.886C289.327 155.521 289.703 156.262 289.91 157.057C290.117 157.852 290.15 158.683 290.007 159.492V181.301C290.007 184.305 287.907 184.738 287.886 184.742C286.504 184.917 285.112 185.004 283.719 185.005ZM282.211 139.134C282.155 139.131 282.1 139.15 282.058 139.185C282.015 139.22 281.986 139.271 281.978 139.326L280.239 152.387C280.097 153.403 279.681 154.361 279.038 155.16C278.576 155.714 278.232 156.358 278.028 157.05C277.824 157.743 277.764 158.471 277.851 159.188L277.854 159.234V181.417C277.853 181.444 277.814 182.831 278.516 183.56C278.662 183.708 278.837 183.824 279.03 183.9C279.223 183.976 279.43 184.01 279.637 184L279.684 184.003C282.369 184.341 285.085 184.341 287.77 184.003C287.805 183.994 289.26 183.662 289.26 181.301L289.266 159.391C289.395 158.683 289.369 157.954 289.189 157.257C289.009 156.559 288.679 155.91 288.223 155.353C287.6 154.551 287.197 153.601 287.054 152.596L285.248 139.261C285.24 139.207 285.212 139.157 285.17 139.122C285.127 139.087 285.073 139.069 285.018 139.071C284.095 139.164 283.167 139.185 282.241 139.136C282.231 139.135 282.221 139.134 282.211 139.134Z" fill="#3F3D56"/>
<path d="M282.242 159.63H284.997C286.093 159.63 287.144 160.066 287.918 160.842C288.693 161.618 289.128 162.67 289.128 163.767V174.149C289.128 175.247 288.693 176.299 287.918 177.075C287.144 177.851 286.093 178.286 284.997 178.286H282.242C281.147 178.286 280.096 177.851 279.321 177.075C278.547 176.299 278.111 175.247 278.111 174.149V163.767C278.111 162.67 278.547 161.618 279.321 160.842C280.096 160.066 281.147 159.63 282.242 159.63Z" fill="#464346"/>
<path d="M191.491 120.712C190.585 120.803 189.674 120.824 188.766 120.775C188.611 120.758 188.455 120.803 188.333 120.899C188.211 120.996 188.131 121.137 188.111 121.292L186.373 134.351C186.239 135.299 185.852 136.193 185.251 136.938C184.757 137.531 184.389 138.219 184.171 138.961C183.953 139.702 183.889 140.48 183.984 141.247V163.43C183.984 163.43 183.872 166.388 186.141 166.388C188.857 166.73 191.605 166.73 194.321 166.388C194.321 166.388 196.138 166.043 196.138 163.314V141.472C196.276 140.71 196.248 139.927 196.054 139.177C195.86 138.427 195.506 137.728 195.016 137.129C194.436 136.381 194.061 135.494 193.928 134.557L192.123 121.224C192.102 121.075 192.025 120.938 191.908 120.843C191.791 120.748 191.641 120.701 191.491 120.712Z" fill="white"/>
<path d="M190.223 167.018C188.85 167.018 187.479 166.932 186.117 166.762C185.813 166.769 185.51 166.713 185.228 166.598C184.947 166.482 184.692 166.31 184.48 166.091C183.556 165.13 183.608 163.485 183.611 163.416L183.61 141.27C183.514 140.456 183.584 139.63 183.817 138.844C184.05 138.058 184.44 137.328 184.964 136.698C185.52 136.006 185.879 135.177 186.003 134.298L187.741 121.242C187.775 120.991 187.905 120.763 188.104 120.606C188.302 120.45 188.554 120.377 188.806 120.403C189.689 120.45 190.574 120.428 191.453 120.339L191.464 120.338C191.709 120.32 191.952 120.397 192.143 120.552C192.334 120.707 192.459 120.929 192.493 121.173L194.299 134.506C194.423 135.378 194.772 136.203 195.311 136.899C195.831 137.535 196.207 138.275 196.414 139.07C196.621 139.865 196.654 140.696 196.511 141.505V163.314C196.511 166.318 194.411 166.752 194.39 166.756C193.008 166.93 191.616 167.018 190.223 167.018ZM188.715 121.147C188.659 121.145 188.604 121.163 188.561 121.198C188.518 121.234 188.49 121.284 188.482 121.339L186.743 134.4C186.6 135.416 186.185 136.374 185.542 137.173C185.08 137.727 184.736 138.371 184.532 139.064C184.328 139.756 184.268 140.484 184.355 141.201L184.358 141.247V163.43C184.357 163.457 184.317 164.845 185.02 165.573C185.166 165.722 185.341 165.837 185.534 165.913C185.727 165.989 185.934 166.023 186.141 166.013L186.188 166.016C188.873 166.354 191.589 166.354 194.274 166.016C194.309 166.007 195.764 165.675 195.764 163.314L195.77 141.405C195.899 140.696 195.873 139.967 195.693 139.27C195.513 138.573 195.183 137.923 194.727 137.366C194.104 136.565 193.701 135.614 193.558 134.609L191.752 121.275C191.744 121.22 191.716 121.17 191.673 121.135C191.631 121.1 191.577 121.082 191.522 121.085C190.599 121.177 189.671 121.199 188.745 121.149C188.735 121.148 188.725 121.147 188.715 121.147Z" fill="#3F3D56"/>
<path d="M188.748 141.644H191.503C192.599 141.644 193.65 142.08 194.424 142.856C195.199 143.632 195.634 144.684 195.634 145.781V156.163C195.634 157.26 195.199 158.313 194.424 159.088C193.65 159.864 192.599 160.3 191.503 160.3H188.748C187.652 160.3 186.602 159.864 185.827 159.088C185.052 158.313 184.617 157.26 184.617 156.163V145.781C184.617 144.684 185.052 143.632 185.827 142.856C186.602 142.08 187.652 141.644 188.748 141.644Z" fill="#464346"/>
<path d="M175.645 101.667C174.74 101.758 173.829 101.779 172.92 101.73C172.765 101.713 172.61 101.758 172.487 101.855C172.365 101.951 172.285 102.092 172.266 102.247L170.527 115.306C170.394 116.254 170.006 117.148 169.406 117.893C168.911 118.486 168.543 119.174 168.325 119.916C168.107 120.657 168.044 121.435 168.138 122.202V144.385C168.138 144.385 168.026 147.343 170.295 147.343C173.011 147.685 175.759 147.685 178.475 147.343C178.475 147.343 180.292 146.998 180.292 144.269V122.427C180.43 121.665 180.402 120.882 180.208 120.132C180.015 119.382 179.66 118.683 179.17 118.084C178.59 117.336 178.215 116.449 178.082 115.512L176.277 102.18C176.256 102.03 176.18 101.893 176.062 101.798C175.945 101.703 175.796 101.656 175.645 101.667Z" fill="white"/>
<path d="M174.377 147.973C173.005 147.973 171.633 147.888 170.271 147.718C169.967 147.725 169.664 147.669 169.383 147.553C169.101 147.438 168.846 147.265 168.634 147.046C167.711 146.086 167.762 144.441 167.765 144.371L167.765 122.225C167.668 121.411 167.739 120.586 167.971 119.8C168.204 119.013 168.595 118.283 169.119 117.653C169.674 116.962 170.033 116.133 170.157 115.254L171.895 102.198C171.929 101.947 172.059 101.719 172.258 101.562C172.457 101.405 172.709 101.332 172.96 101.358C173.843 101.405 174.728 101.384 175.608 101.294L175.618 101.294C175.863 101.276 176.106 101.352 176.298 101.507C176.489 101.663 176.614 101.885 176.647 102.129L178.453 115.462C178.577 116.334 178.926 117.159 179.465 117.854C179.985 118.49 180.361 119.231 180.568 120.026C180.776 120.821 180.809 121.651 180.666 122.46V144.269C180.666 147.274 178.566 147.707 178.544 147.711C177.162 147.886 175.77 147.973 174.377 147.973ZM172.869 102.103C172.813 102.1 172.759 102.118 172.716 102.154C172.673 102.189 172.644 102.239 172.636 102.294L170.898 115.356C170.755 116.372 170.34 117.33 169.697 118.128C169.234 118.683 168.891 119.326 168.686 120.019C168.482 120.712 168.422 121.439 168.509 122.156L168.512 122.202V144.385C168.511 144.413 168.472 145.8 169.175 146.529C169.32 146.677 169.495 146.793 169.688 146.869C169.881 146.945 170.088 146.979 170.295 146.969L170.342 146.972C173.027 147.309 175.743 147.309 178.428 146.972C178.464 146.963 179.918 146.631 179.918 144.269L179.924 122.36C180.053 121.651 180.027 120.923 179.847 120.226C179.667 119.528 179.337 118.878 178.881 118.321C178.258 117.52 177.855 116.57 177.712 115.565L175.906 102.23C175.898 102.175 175.87 102.126 175.828 102.091C175.785 102.055 175.731 102.037 175.676 102.04C174.753 102.133 173.825 102.154 172.9 102.105C172.889 102.103 172.879 102.103 172.869 102.103Z" fill="#3F3D56"/>
<path d="M172.9 122.599H175.656C176.751 122.599 177.802 123.035 178.577 123.811C179.351 124.587 179.786 125.639 179.786 126.736V137.118C179.786 138.215 179.351 139.268 178.577 140.044C177.802 140.819 176.751 141.255 175.656 141.255H172.9C171.805 141.255 170.754 140.819 169.979 140.044C169.205 139.268 168.77 138.215 168.77 137.118V126.736C168.77 125.639 169.205 124.587 169.979 123.811C170.754 123.035 171.805 122.599 172.9 122.599Z" fill="#464346"/>
<path d="M29.6802 37.5602C36.9735 37.5602 42.8858 31.639 42.8858 24.3348C42.8858 17.0306 36.9735 11.1094 29.6802 11.1094C22.387 11.1094 16.4746 17.0306 16.4746 24.3348C16.4746 31.639 22.387 37.5602 29.6802 37.5602Z" fill="#F0F0F0"/>
<path d="M333.936 26.4508C341.229 26.4508 347.142 20.5296 347.142 13.2254C347.142 5.92122 341.229 0 333.936 0C326.643 0 320.73 5.92122 320.73 13.2254C320.73 20.5296 326.643 26.4508 333.936 26.4508Z" fill="#F0F0F0"/>
<path d="M182.865 59.779C188.117 59.779 192.374 55.5157 192.374 50.2567C192.374 44.9977 188.117 40.7344 182.865 40.7344C177.614 40.7344 173.357 44.9977 173.357 50.2567C173.357 55.5157 177.614 59.779 182.865 59.779Z" fill="#F0F0F0"/>
</g>
<defs>
<clipPath id="clip0_11_7588">
<rect width="387" height="338" fill="white"/>
</clipPath>
</defs>
</svg>
