<svg width="387" height="281" viewBox="0 0 387 281" fill="none" xmlns="http://www.w3.org/2000/svg">
<path d="M246.617 210.657V278.395H77.2009C57.8982 278.395 42.1934 263.201 42.1934 244.526C42.1934 225.851 57.8982 210.657 77.2009 210.657H246.617Z" fill="#F2F2F2"/>
<path d="M250.777 277.874C250.776 278.564 250.502 279.227 250.015 279.715C249.527 280.204 248.866 280.479 248.176 280.479H74.1818C64.7319 280.479 55.669 276.718 48.9869 270.025C42.3048 263.331 38.5508 254.253 38.5508 244.786C38.5508 235.32 42.3048 226.242 48.9869 219.548C55.669 212.854 64.7319 209.094 74.1818 209.094H248.176C248.866 209.094 249.527 209.368 250.015 209.857C250.503 210.345 250.777 211.008 250.777 211.699C250.777 212.39 250.503 213.053 250.015 213.541C249.527 214.03 248.866 214.304 248.176 214.304H74.1818C66.1114 214.304 58.3716 217.516 52.665 223.232C46.9583 228.949 43.7524 236.702 43.7524 244.786C43.7524 252.871 46.9583 260.624 52.665 266.34C58.3716 272.057 66.1114 275.268 74.1818 275.268H248.176C248.866 275.269 249.527 275.543 250.015 276.032C250.502 276.52 250.776 277.183 250.777 277.874Z" fill="#464346"/>
<path d="M246.616 226.289H64.5592C64.4213 226.289 64.289 226.234 64.1914 226.136C64.0939 226.038 64.0391 225.906 64.0391 225.768C64.0391 225.629 64.0939 225.497 64.1914 225.399C64.289 225.301 64.4213 225.247 64.5592 225.247H246.616C246.754 225.247 246.886 225.301 246.984 225.399C247.081 225.497 247.136 225.629 247.136 225.768C247.136 225.906 247.081 226.038 246.984 226.136C246.886 226.234 246.754 226.289 246.616 226.289Z" fill="#CCCCCC"/>
<path d="M246.616 238.794H64.5592C64.4213 238.794 64.289 238.739 64.1914 238.641C64.0939 238.544 64.0391 238.411 64.0391 238.273C64.0391 238.135 64.0939 238.002 64.1914 237.905C64.289 237.807 64.4213 237.752 64.5592 237.752H246.616C246.754 237.752 246.886 237.807 246.984 237.905C247.081 238.002 247.136 238.135 247.136 238.273C247.136 238.411 247.081 238.544 246.984 238.641C246.886 238.739 246.754 238.794 246.616 238.794Z" fill="#CCCCCC"/>
<path d="M246.616 251.299H64.5592C64.4213 251.299 64.289 251.245 64.1914 251.147C64.0939 251.049 64.0391 250.917 64.0391 250.778C64.0391 250.64 64.0939 250.508 64.1914 250.41C64.289 250.312 64.4213 250.257 64.5592 250.257H246.616C246.754 250.257 246.886 250.312 246.984 250.41C247.081 250.508 247.136 250.64 247.136 250.778C247.136 250.917 247.081 251.049 246.984 251.147C246.886 251.245 246.754 251.299 246.616 251.299Z" fill="#CCCCCC"/>
<path d="M246.616 263.805H64.5592C64.4213 263.805 64.289 263.75 64.1914 263.652C64.0939 263.554 64.0391 263.422 64.0391 263.284C64.0391 263.146 64.0939 263.013 64.1914 262.915C64.289 262.818 64.4213 262.763 64.5592 262.763H246.616C246.754 262.763 246.886 262.818 246.984 262.915C247.081 263.013 247.136 263.146 247.136 263.284C247.136 263.422 247.081 263.554 246.984 263.652C246.886 263.75 246.754 263.805 246.616 263.805Z" fill="#CCCCCC"/>
<path d="M377.55 223.408L335.123 276.154L203.203 169.675C188.172 157.543 185.459 135.841 197.156 121.3C208.853 106.758 230.599 104.797 245.629 116.929L377.55 223.408Z" fill="#F2F2F2"/>
<path d="M338.69 278.364C338.257 278.901 337.628 279.245 336.943 279.319C336.257 279.393 335.57 279.191 335.033 278.758L199.547 169.402C192.189 163.462 187.487 154.838 186.476 145.426C185.465 136.014 188.228 126.586 194.157 119.214C200.087 111.843 208.696 107.133 218.092 106.121C227.487 105.108 236.9 107.876 244.258 113.816L379.744 223.172C380.01 223.386 380.232 223.651 380.395 223.951C380.559 224.252 380.663 224.581 380.699 224.922C380.736 225.262 380.705 225.606 380.609 225.935C380.513 226.263 380.353 226.569 380.139 226.836C379.924 227.102 379.659 227.324 379.36 227.488C379.06 227.652 378.73 227.755 378.391 227.792C378.051 227.828 377.707 227.797 377.38 227.701C377.052 227.604 376.746 227.444 376.48 227.229L240.995 117.873C237.883 115.36 234.308 113.485 230.473 112.356C226.638 111.227 222.619 110.866 218.645 111.293C214.67 111.721 210.819 112.928 207.311 114.847C203.803 116.766 200.706 119.358 198.199 122.476C195.691 125.594 193.821 129.176 192.695 133.018C191.57 136.86 191.211 140.886 191.639 144.867C192.067 148.848 193.274 152.706 195.191 156.219C197.108 159.733 199.697 162.833 202.811 165.344L338.296 274.7C338.833 275.134 339.176 275.763 339.25 276.45C339.324 277.137 339.122 277.825 338.69 278.364Z" fill="#CCCCCC"/>
<path d="M367.758 235.58L225.995 121.157C225.941 121.114 225.897 121.061 225.864 121.001C225.832 120.941 225.811 120.875 225.804 120.807C225.796 120.739 225.803 120.67 225.822 120.604C225.841 120.539 225.873 120.477 225.916 120.424C225.959 120.371 226.012 120.327 226.072 120.294C226.132 120.261 226.197 120.24 226.265 120.233C226.333 120.226 226.402 120.232 226.467 120.251C226.533 120.27 226.594 120.302 226.647 120.345L368.411 234.769C368.464 234.811 368.509 234.864 368.542 234.924C368.574 234.985 368.595 235.051 368.602 235.119C368.61 235.187 368.604 235.256 368.584 235.321C368.565 235.387 368.533 235.448 368.49 235.502C368.447 235.555 368.394 235.599 368.334 235.632C368.274 235.665 368.209 235.686 368.141 235.693C368.073 235.7 368.004 235.694 367.938 235.675C367.873 235.655 367.812 235.623 367.758 235.58V235.58Z" fill="#CCCCCC"/>
<path d="M359.926 245.318L218.162 130.895C218.055 130.808 217.986 130.682 217.972 130.545C217.957 130.407 217.997 130.27 218.084 130.162C218.17 130.055 218.296 129.986 218.433 129.971C218.57 129.956 218.707 129.997 218.815 130.083L360.579 244.506C360.632 244.549 360.676 244.602 360.709 244.662C360.742 244.722 360.762 244.788 360.77 244.857C360.777 244.925 360.771 244.993 360.752 245.059C360.733 245.125 360.701 245.186 360.658 245.24C360.615 245.293 360.562 245.337 360.502 245.37C360.442 245.403 360.376 245.423 360.308 245.431C360.24 245.438 360.171 245.432 360.106 245.412C360.04 245.393 359.979 245.361 359.926 245.318Z" fill="#CCCCCC"/>
<path d="M352.094 255.056L210.331 140.632C210.223 140.546 210.154 140.42 210.14 140.282C210.125 140.145 210.165 140.007 210.252 139.9C210.338 139.792 210.464 139.723 210.601 139.709C210.738 139.694 210.876 139.734 210.983 139.821L352.747 254.244C352.8 254.287 352.844 254.34 352.877 254.4C352.91 254.46 352.931 254.526 352.938 254.594C352.945 254.662 352.939 254.731 352.92 254.797C352.901 254.862 352.869 254.924 352.826 254.977C352.783 255.03 352.73 255.074 352.67 255.107C352.61 255.14 352.544 255.161 352.476 255.168C352.408 255.175 352.34 255.169 352.274 255.15C352.209 255.131 352.147 255.099 352.094 255.056V255.056Z" fill="#CCCCCC"/>
<path d="M344.26 264.793L202.497 150.37C202.443 150.327 202.399 150.274 202.366 150.214C202.334 150.154 202.313 150.088 202.306 150.02C202.298 149.952 202.305 149.883 202.324 149.818C202.343 149.752 202.375 149.691 202.418 149.637C202.461 149.584 202.514 149.54 202.574 149.507C202.634 149.474 202.699 149.454 202.767 149.446C202.835 149.439 202.904 149.445 202.969 149.464C203.035 149.484 203.096 149.516 203.149 149.559L344.913 263.982C344.966 264.025 345.011 264.078 345.043 264.138C345.076 264.198 345.097 264.264 345.104 264.332C345.112 264.4 345.106 264.469 345.086 264.535C345.067 264.6 345.035 264.662 344.992 264.715C344.949 264.768 344.896 264.813 344.836 264.845C344.776 264.878 344.71 264.899 344.642 264.906C344.575 264.913 344.506 264.907 344.44 264.888C344.375 264.869 344.313 264.836 344.26 264.793Z" fill="#CCCCCC"/>
<path d="M386.48 281H0.520161C0.382206 281 0.2499 280.945 0.152351 280.848C0.0548022 280.75 0 280.617 0 280.479C0 280.341 0.0548022 280.208 0.152351 280.111C0.2499 280.013 0.382206 279.958 0.520161 279.958H386.48C386.618 279.958 386.75 280.013 386.848 280.111C386.945 280.208 387 280.341 387 280.479C387 280.617 386.945 280.75 386.848 280.848C386.75 280.945 386.618 281 386.48 281Z" fill="#CCCCCC"/>
<path d="M175.857 203.537L169.91 203.537L167.082 180.56L175.859 180.561L175.857 203.537Z" fill="#FFB8B8"/>
<path d="M165.662 201.835H177.131V209.068H158.441C158.441 208.118 158.628 207.178 158.991 206.3C159.354 205.423 159.886 204.625 160.556 203.954C161.227 203.282 162.023 202.749 162.899 202.386C163.775 202.022 164.714 201.835 165.662 201.835Z" fill="#2F2E41"/>
<path d="M115.105 203.537L109.158 203.537L106.33 180.56L115.107 180.561L115.105 203.537Z" fill="#FFB8B8"/>
<path d="M104.91 201.835H116.379V209.068H97.6895C97.6895 208.118 97.8762 207.178 98.2391 206.3C98.602 205.423 99.1339 204.625 99.8044 203.954C100.475 203.282 101.271 202.749 102.147 202.386C103.023 202.022 103.962 201.835 104.91 201.835Z" fill="#2F2E41"/>
<path d="M134.967 33.1043V30.499C134.967 26.0422 136.734 21.768 139.88 18.6167C143.026 15.4653 147.293 13.6948 151.742 13.6948H151.742C156.191 13.6948 160.458 15.4653 163.604 18.6167C166.75 21.768 168.517 26.0422 168.517 30.499V33.1043C168.517 36.3173 167.243 39.3987 164.975 41.6707C162.707 43.9426 159.631 45.219 156.423 45.219H147.061C145.472 45.219 143.9 44.9056 142.432 44.2968C140.965 43.688 139.632 42.7956 138.509 41.6707C137.386 40.5457 136.495 39.2102 135.887 37.7404C135.28 36.2706 134.967 34.6952 134.967 33.1043Z" fill="#2F2E41"/>
<path d="M151.743 46.1155C158.798 46.1155 164.518 40.3858 164.518 33.3178C164.518 26.2498 158.798 20.52 151.743 20.52C144.687 20.52 138.967 26.2498 138.967 33.3178C138.967 40.3858 144.687 46.1155 151.743 46.1155Z" fill="#FFB8B8"/>
<path d="M82.2497 77.3022C82.7682 76.8118 83.3877 76.4413 84.0645 76.2166C84.7414 75.992 85.4592 75.9188 86.1674 76.0021C86.8756 76.0854 87.557 76.3233 88.1635 76.6989C88.77 77.0746 89.2869 77.5789 89.6778 78.1763L100.63 76.1011L103.512 82.4604L88.0046 85.1734C86.9592 85.7646 85.7336 85.9513 84.56 85.6978C83.3864 85.4444 82.3464 84.7685 81.6371 83.7983C80.9277 82.8281 80.5983 81.6309 80.7112 80.4337C80.8241 79.2364 81.3715 78.1222 82.2497 77.3022V77.3022Z" fill="#FFB8B8"/>
<path d="M141.782 54.1752L141.926 54.3925L123.967 66.2437L93.6629 75.9371C93.2612 76.0664 92.9167 76.3312 92.6879 76.6863C92.4592 77.0415 92.3604 77.4651 92.4083 77.885L93.0694 83.5888C93.0987 83.8413 93.1804 84.0848 93.3091 84.3038C93.4379 84.5228 93.6109 84.7124 93.8171 84.8605C94.0233 85.0085 94.2581 85.1118 94.5065 85.1637C94.7548 85.2156 95.0113 85.2149 95.2594 85.1617L123.78 79.0378C125.16 78.7431 126.465 78.1675 127.614 77.3467L147.79 62.9671C148.521 62.4429 149.105 61.7381 149.484 60.9212C149.863 60.1042 150.025 59.2029 149.953 58.3049C149.879 57.4056 149.573 56.5412 149.064 55.7966C148.555 55.0519 147.862 54.4528 147.052 54.058C146.242 53.6633 145.343 53.4865 144.445 53.5452C143.546 53.6038 142.678 53.8959 141.926 54.3925L141.782 54.1752Z" fill="#CCCCCC"/>
<path d="M170.016 197.017C169.56 197.017 169.113 196.884 168.731 196.634C168.349 196.384 168.047 196.028 167.864 195.61L140.602 128.132C140.538 127.986 140.432 127.862 140.296 127.779C140.16 127.695 140.002 127.655 139.843 127.664C139.684 127.673 139.531 127.731 139.406 127.829C139.28 127.927 139.188 128.062 139.141 128.215L116.9 193.906C116.806 194.212 116.651 194.495 116.443 194.739C116.236 194.982 115.982 195.18 115.695 195.322C115.408 195.463 115.096 195.544 114.777 195.559C114.458 195.575 114.14 195.525 113.841 195.413L106.382 192.611C105.977 192.461 105.622 192.2 105.356 191.86C105.09 191.519 104.924 191.111 104.875 190.681C101.52 161.401 130.779 87.4956 131.075 86.7527L131.157 86.5469L157.83 92.4571L157.885 92.5177C168.527 104.147 177.273 177.493 178.919 192.078C178.98 192.605 178.86 193.137 178.58 193.587C178.299 194.036 177.873 194.377 177.373 194.552L170.79 196.884C170.541 196.972 170.28 197.017 170.016 197.017Z" fill="#2F2E41"/>
<path d="M147.035 94.836C140.572 94.836 133.368 93.5453 131.15 88.2182L131.099 88.0958L131.168 87.9823C132.918 85.1053 135.232 80.1975 133.988 79.2762C131.539 77.4619 130.35 74.4773 130.456 70.405C130.685 61.5648 136.698 53.7161 145.419 50.8744H145.419C147.853 50.0941 150.33 49.4552 152.838 48.9609C154.666 48.5914 156.553 48.632 158.364 49.0799C160.174 49.5278 161.864 50.3719 163.31 51.5514C164.774 52.7387 165.958 54.2362 166.776 55.9363C167.594 57.6364 168.026 59.4969 168.041 61.3841C168.133 70.8314 166.681 83.9894 159.244 93.023C158.896 93.4421 158.411 93.7247 157.875 93.8209C154.297 94.4691 150.67 94.8087 147.035 94.836Z" fill="#CCCCCC"/>
<path d="M144.632 94.4818C144.983 93.2181 145.819 92.1445 146.956 91.4943C148.094 90.8441 149.441 90.6698 150.706 91.0094C150.965 91.0817 151.217 91.1752 151.46 91.2888L159.775 83.708L165.558 87.6109L153.667 98.1524C153.13 99.1222 152.284 99.8843 151.265 100.317C150.246 100.75 149.111 100.83 148.042 100.542C147.419 100.372 146.836 100.079 146.327 99.6809C145.818 99.2831 145.392 98.7881 145.075 98.2245C144.758 97.661 144.555 97.0401 144.479 96.3976C144.403 95.7552 144.455 95.1041 144.632 94.4818Z" fill="#FFB8B8"/>
<path d="M158.457 94.5783C157.917 94.5787 157.394 94.3918 156.977 94.0494L153.697 91.365C153.424 91.1412 153.205 90.8583 153.056 90.5377C152.907 90.217 152.833 89.8667 152.838 89.5131C152.844 89.1595 152.929 88.8117 153.087 88.4958C153.246 88.1799 153.474 87.904 153.754 87.6888L167.508 77.1218C167.671 76.996 167.778 76.8108 167.806 76.6064C167.833 76.4021 167.779 76.1951 167.656 76.0303L159.166 64.7879C158.18 63.4861 157.685 61.8767 157.77 60.2446C157.854 58.6125 158.513 57.063 159.628 55.8703C160.803 54.5994 162.411 53.8173 164.135 53.6792C165.859 53.5411 167.571 54.0571 168.932 55.1249L168.986 55.1816L177.851 67.8967C178.809 68.6496 179.581 69.6142 180.106 70.7153C180.631 71.8164 180.895 73.0242 180.876 74.2443C180.858 75.4643 180.559 76.6637 180.001 77.7486C179.444 78.8336 178.644 79.7748 177.663 80.4988L159.85 94.1186C159.447 94.4172 158.958 94.5783 158.457 94.5783Z" fill="#CCCCCC"/>
<path d="M140.426 29.7177V23.368L151.742 18.418L162.533 23.368V29.7177C162.533 29.9941 162.423 30.2592 162.228 30.4546C162.033 30.6501 161.768 30.7599 161.492 30.7599H141.466C141.19 30.7599 140.926 30.6501 140.73 30.4546C140.535 30.2592 140.426 29.9941 140.426 29.7177Z" fill="#2F2E41"/>
<path d="M151.223 14.5374C149.559 9.20248 153.054 3.08847 158.22 0.976783C163.386 -1.1349 169.566 0.341232 173.925 3.83005C178.284 7.31886 180.989 12.5445 182.422 17.9462C183.855 23.3479 184.127 28.9805 184.392 34.5634C190.739 35.7313 195.056 43.2726 192.858 49.3502C190.659 55.4279 182.521 58.4473 176.9 55.2707C171.28 52.094 169.652 43.5549 173.708 38.5271C175.628 36.1481 176.7 33.1956 176.755 30.1373C176.81 27.079 175.845 24.0896 174.013 21.6427C172.18 19.1958 169.586 17.4313 166.639 16.6285C163.693 15.8257 160.563 16.0306 157.746 17.2107C154.618 18.5211 150.693 15.1164 151.223 14.5374Z" fill="#2F2E41"/>
<path d="M79.9034 52.6703C72.3041 52.6203 64.7999 50.9739 57.8755 47.8375C57.4633 47.6535 57.1135 47.3534 56.8685 46.9737C56.6236 46.594 56.4942 46.1511 56.4961 45.6991V26.7232C56.4968 26.1015 56.7436 25.5055 57.1825 25.0659C57.6213 24.6264 58.2163 24.3791 58.8368 24.3784H100.97C101.59 24.3791 102.185 24.6264 102.624 25.066C103.063 25.5055 103.31 26.1015 103.311 26.7232V45.6991C103.313 46.1512 103.183 46.594 102.938 46.9737C102.693 47.3534 102.343 47.6535 101.931 47.8375C95.0068 50.974 87.5026 52.6203 79.9034 52.6703Z" fill="#464346"/>
<path d="M79.8979 37.2973C79.5855 37.2976 79.2762 37.2353 78.9883 37.1141L45.5773 22.9936C45.1464 22.8116 44.7799 22.5044 44.525 22.1117C44.27 21.719 44.1383 21.2588 44.1469 20.7904C44.1554 20.3221 44.3039 19.867 44.573 19.484C44.8422 19.1009 45.2197 18.8074 45.6569 18.6412L79.0683 5.94418C79.6065 5.73874 80.2015 5.74001 80.7387 5.94775L113.702 18.6448C114.137 18.8122 114.512 19.1058 114.779 19.488C115.047 19.8701 115.194 20.3235 115.203 20.79C115.211 21.2565 115.081 21.715 114.828 22.1068C114.575 22.4986 114.211 22.8058 113.783 22.9893L80.8185 37.1096C80.5274 37.2337 80.2142 37.2976 79.8979 37.2973Z" fill="#464346"/>
<path d="M60.3983 49.1287C62.122 49.1287 63.5193 47.729 63.5193 46.0023C63.5193 44.2757 62.122 42.876 60.3983 42.876C58.6746 42.876 57.2773 44.2757 57.2773 46.0023C57.2773 47.729 58.6746 49.1287 60.3983 49.1287Z" fill="#3F3D56"/>
<path opacity="0.2" d="M113.898 20.9851L80.9337 35.1054C80.6767 35.2155 80.4002 35.2726 80.1207 35.2732C79.8412 35.2739 79.5644 35.2182 79.3069 35.1094L45.8959 20.9893C45.4763 20.8162 45.1263 20.5079 44.9011 20.1133C44.7538 20.3692 44.6625 20.6536 44.6333 20.9475C44.6041 21.2415 44.6376 21.5383 44.7317 21.8183C44.8258 22.0983 44.9783 22.355 45.179 22.5714C45.3797 22.7878 45.6241 22.959 45.8959 23.0735L79.3069 37.1936C79.5644 37.3024 79.8412 37.3582 80.1207 37.3575C80.4002 37.3568 80.6767 37.2997 80.9337 37.1896L113.898 23.0694C114.168 22.9538 114.411 22.7821 114.611 22.5656C114.81 22.3491 114.961 22.0927 115.054 21.8133C115.147 21.534 115.18 21.238 115.151 20.9449C115.121 20.6519 115.03 20.3684 114.883 20.1133C114.66 20.5048 114.313 20.8113 113.898 20.9851Z" fill="black"/>
<path d="M60.6608 45.9901C60.7987 45.9901 60.9311 45.9352 61.0286 45.8375C61.1262 45.7398 61.181 45.6073 61.181 45.4691V28.0337L78.3365 21.7731C78.4745 21.7751 78.6076 21.7222 78.7066 21.6259C78.8056 21.5297 78.8624 21.398 78.8644 21.2598C78.8665 21.1216 78.8136 20.9882 78.7175 20.8891C78.6214 20.7899 78.4899 20.733 78.352 20.731L61.1964 26.9916C61.0584 26.9884 60.9211 27.0133 60.793 27.0648C60.6648 27.1163 60.5484 27.1934 60.4509 27.2913C60.3523 27.388 60.274 27.5035 60.2207 27.631C60.1674 27.7585 60.1402 27.8954 60.1406 28.0337V45.4691C60.1406 45.6073 60.1954 45.7398 60.293 45.8375C60.3905 45.9352 60.5228 45.9901 60.6608 45.9901Z" fill="#3F3D56"/>
</svg>
